<?xml version="1.0" standalone="no"?>
<!DOCTYPE svg PUBLIC "-//W3C//DTD SVG 20010904//EN"
 "http://www.w3.org/TR/2001/REC-SVG-20010904/DTD/svg10.dtd">
<svg version="1.0" xmlns="http://www.w3.org/2000/svg"
 width="16.000000pt" height="16.000000pt" viewBox="0 0 16.000000 16.000000"
 preserveAspectRatio="xMidYMid meet">
<metadata>
Created by potrace 1.11, written by Peter Selinger 2001-2013
</metadata>
<g transform="translate(0.000000,16.000000) scale(0.001600,-0.001600)"
fill="#000000" stroke="none">
<path d="M7937 7823 c-19 -5 -117 -144 -117 -166 0 -8 -6 -17 -12 -20 -7 -2
-24 -23 -37 -47 -21 -38 -22 -41 -5 -40 47 5 54 1 54 -34 0 -35 0 -35 -43 -32
-23 1 -48 5 -55 10 -12 7 -122 -151 -122 -178 0 -19 17 -31 70 -51 65 -24 82
-31 110 -43 111 -49 226 -92 245 -92 29 0 54 32 180 230 106 167 128 211 119
234 -6 17 -318 220 -349 228 -11 3 -28 3 -38 1z"/>
<path d="M4905 7702 c-10 -10 -5 -841 4 -847 6 -3 10 -13 11 -23 0 -9 3 -38 6
-64 4 -32 1 -56 -11 -81 -10 -21 -15 -53 -13 -82 3 -48 3 -48 49 -61 44 -13
101 -58 126 -100 11 -19 11 -19 26 0 8 11 25 21 38 22 30 3 119 -35 119 -51 0
-22 -45 -78 -64 -81 -11 -2 -35 4 -54 12 -34 14 -34 13 -28 -9 3 -12 6 -41 6
-63 0 -32 4 -43 19 -47 28 -7 33 -53 7 -65 l-21 -9 0 -712 c0 -670 1 -712 17
-717 17 -5 26 -25 11 -23 -5 1 -13 1 -18 0 -7 -1 -11 -139 -11 -420 -1 -434
-4 -468 -45 -552 -25 -49 -90 -106 -138 -119 l-41 -11 0 -114 c0 -114 0 -115
30 -145 45 -46 38 -110 -12 -110 -17 0 -18 -22 -18 -386 l0 -387 63 6 c120 11
156 19 162 35 5 13 8 14 14 3 7 -11 26 -8 99 14 81 25 90 30 87 51 -1 12 2 28
6 36 7 10 9 10 9 1 0 -7 9 -13 20 -13 11 0 20 -4 20 -10 0 -5 4 -10 10 -10 14
0 6 40 -10 50 -8 5 -11 12 -7 16 4 4 2 12 -3 19 -7 8 -2 10 20 7 39 -6 60 -30
40 -46 -8 -6 -16 -16 -17 -23 -3 -16 31 -5 56 18 12 11 21 17 21 14 0 -8 35
11 123 68 42 28 77 57 77 64 0 7 8 13 18 13 20 1 122 91 122 109 0 8 -7 10
-19 6 -18 -5 -20 -2 -17 46 3 44 1 52 -16 57 -13 3 -16 7 -8 12 16 10 2 60
-17 60 -11 0 -14 6 -9 23 3 12 6 27 6 34 0 6 9 10 20 8 20 -4 29 10 10 17 -11
3 9 58 21 58 12 0 53 -53 44 -56 -24 -9 -75 -44 -75 -52 0 -5 16 -14 35 -22
19 -7 32 -17 29 -21 -2 -5 -11 -6 -18 -3 -8 3 -17 0 -22 -7 -5 -9 3 -10 34 -6
22 4 43 3 46 -2 3 -5 -2 -7 -13 -4 -24 6 -36 -34 -15 -54 8 -8 14 -28 14 -45
l0 -31 21 24 c11 13 30 35 42 49 81 93 220 339 220 389 0 14 6 30 14 36 8 6
15 17 16 25 2 8 6 21 11 29 5 8 4 16 -4 21 -9 5 -8 9 3 13 8 3 18 25 22 49 4
24 9 51 11 61 1 9 -1 17 -7 17 -5 0 -9 5 -9 11 0 6 7 9 15 5 11 -4 15 2 15 21
0 23 -3 25 -28 20 -23 -5 -28 -2 -27 11 3 27 16 52 27 52 6 0 6 -6 -1 -14 -10
-12 -8 -17 8 -25 26 -15 26 -14 28 11 1 12 -3 26 -10 31 -9 7 -9 10 1 14 6 2
12 9 12 14 0 6 -4 7 -10 4 -5 -3 -10 -1 -10 4 0 6 7 11 15 11 9 0 12 6 9 15
-4 8 -12 15 -20 15 -8 0 -14 5 -14 10 0 6 -11 8 -27 4 -36 -9 -40 -13 -24 -23
7 -5 10 -14 6 -21 -8 -13 -33 29 -39 63 -1 10 -8 22 -15 27 -10 5 -8 11 8 22
11 8 18 18 14 21 -6 7 10 11 33 8 6 -1 16 15 22 35 10 35 10 36 -14 30 -13 -4
-24 -2 -24 3 0 5 10 11 22 13 l23 3 -25 23 c-16 15 -19 22 -9 22 26 0 38 20
29 50 -5 16 -5 31 -2 35 9 9 8 49 -1 56 -5 3 -5 21 0 40 5 19 9 52 8 74 0 22
6 47 14 55 13 13 12 15 -3 18 -14 3 -15 6 -5 19 10 12 10 16 -1 23 -12 7 -11
12 3 28 15 16 15 21 4 31 -8 6 -12 22 -10 35 4 17 -1 28 -16 38 -12 7 -21 16
-21 21 0 4 5 5 10 2 6 -3 10 -1 10 5 0 6 -7 13 -16 17 -15 6 -15 7 1 19 15 11
16 16 5 29 -7 9 -8 15 -2 15 6 0 17 3 26 6 11 4 16 0 16 -12 0 -9 3 -14 7 -10
4 3 13 -4 20 -16 12 -22 12 -22 14 12 6 123 2 150 -26 172 -26 20 -26 22 -9
29 10 3 24 3 30 -2 8 -7 11 14 11 71 -1 63 -4 80 -14 76 -19 -8 -74 5 -67 15
3 5 9 7 14 4 5 -3 11 -1 14 4 3 5 -6 13 -22 19 -20 7 -31 6 -41 -5 -18 -20
-35 -11 -39 20 -2 19 1 27 12 27 9 0 16 -4 16 -10 0 -5 18 -9 40 -7 39 2 40 3
37 37 -2 19 -6 40 -10 46 -9 15 2 24 21 17 11 -5 14 -2 9 9 -4 12 -1 14 14 11
18 -5 19 1 19 126 0 90 -3 131 -11 131 -8 0 -8 4 -1 13 7 8 11 147 11 405 1
382 1 392 -18 392 -22 0 -25 36 -4 44 7 3 12 18 12 33 -2 24 -2 25 -6 5 -2
-12 -8 -20 -13 -17 -5 3 -15 -3 -21 -14 -14 -21 -39 -18 -39 5 0 8 -4 14 -10
14 -5 0 -7 7 -4 15 4 8 1 15 -5 15 -6 0 -11 7 -11 15 0 8 5 15 11 15 7 0 9 12
5 36 -5 23 -3 41 6 52 9 11 9 14 1 9 -9 -6 -12 7 -12 46 1 52 -16 106 -29 93
-3 -4 -18 6 -33 20 -24 23 -26 30 -17 48 15 26 17 55 6 62 -4 3 -8 14 -8 25 0
19 11 23 60 20 23 -2 24 -1 8 12 -19 15 -24 47 -8 47 25 0 -151 301 -184 313
-9 4 -16 12 -16 19 0 7 -9 23 -18 36 -16 21 -20 22 -31 8 -11 -12 -17 -14 -27
-5 -19 16 -17 39 3 39 34 0 -134 152 -260 234 -145 94 -369 181 -523 202 -120
16 -165 20 -169 16z m85 -62 c0 -5 -4 -10 -10 -10 -5 0 -10 5 -10 10 0 6 5 10
10 10 6 0 10 -4 10 -10z m44 -10 c28 -10 26 -40 -3 -40 -26 0 -42 15 -35 33 7
20 6 20 38 7z m96 -65 c7 -9 8 -15 2 -15 -5 0 -12 7 -16 15 -3 8 -4 15 -2 15
2 0 9 -7 16 -15z m193 -70 c-3 -17 -30 -17 -37 0 -4 13 -1 16 17 13 12 -2 21
-7 20 -13z m-183 -21 c0 -8 -5 -12 -10 -9 -6 4 -8 11 -5 16 9 14 15 11 15 -7z
m430 -148 c0 -3 -4 -8 -10 -11 -5 -3 -10 -1 -10 4 0 6 5 11 10 11 6 0 10 -2
10 -4z m-380 -58 c0 -28 -16 -37 -53 -31 -42 6 -48 19 -14 33 33 13 67 12 67
-2z m-110 -38 c0 -5 -4 -10 -10 -10 -5 0 -10 5 -10 10 0 6 5 10 10 10 6 0 10
-4 10 -10z m235 -40 c11 -17 -5 -32 -21 -19 -7 6 -11 15 -8 20 7 12 21 11 29
-1z m157 -39 c28 -14 44 -43 33 -61 -11 -18 -38 -11 -67 16 -22 22 -25 31 -17
46 6 11 13 18 17 16 4 -2 19 -10 34 -17z m258 -21 c0 -5 -7 -10 -15 -10 -8 0
-15 5 -15 10 0 6 7 10 15 10 8 0 15 -4 15 -10z m-230 -120 c0 -5 -5 -10 -11
-10 -5 0 -7 5 -4 10 3 6 8 10 11 10 2 0 4 -4 4 -10z m530 -14 c0 -20 -24 -36
-39 -26 -8 4 -11 15 -8 24 8 20 47 21 47 2z m-850 -26 c0 -5 -4 -10 -10 -10
-5 0 -10 5 -10 10 0 6 5 10 10 10 6 0 10 -4 10 -10z m300 -175 c0 -8 -4 -15
-9 -15 -13 0 -22 16 -14 24 11 11 23 6 23 -9z m-220 -169 c0 -11 -19 -15 -25
-6 -3 5 1 10 9 10 9 0 16 -2 16 -4z m-36 -57 c-3 -5 -10 -7 -15 -3 -5 3 -7 10
-3 15 3 5 10 7 15 3 5 -3 7 -10 3 -15z m916 -9 c0 -5 -7 -7 -15 -4 -8 4 -15 8
-15 10 0 2 7 4 15 4 8 0 15 -4 15 -10z m-43 -57 c2 -6 -8 -13 -22 -15 -19 -4
-25 -1 -25 13 0 14 6 18 22 16 12 -2 23 -8 25 -14z m-647 -113 c0 -5 -4 -10
-10 -10 -5 0 -10 5 -10 10 0 6 5 10 10 10 6 0 10 -4 10 -10z m627 -26 c-3 -3
-12 -4 -19 -1 -8 3 -5 6 6 6 11 1 17 -2 13 -5z m-458 -74 c4 -3 22 -26 41 -52
19 -26 42 -48 50 -48 11 0 12 -2 1 -12 -10 -11 -17 -8 -35 15 -12 15 -32 27
-44 27 -13 0 -22 6 -22 15 0 8 -4 15 -9 15 -14 0 -34 58 -27 77 6 14 9 13 23
-8 9 -13 19 -26 22 -29z m143 -85 c-4 -25 -16 -32 -26 -16 -4 5 0 11 6 14 10
3 10 7 1 19 -15 18 -5 32 12 18 7 -6 10 -21 7 -35z m188 18 c0 -25 -1 -26 -16
-11 -9 9 -13 21 -10 27 13 20 26 11 26 -16z m250 -3 c-10 -19 -6 -24 13 -21 5
1 7 -4 5 -11 -3 -7 -18 -14 -34 -15 -19 -1 -24 1 -15 6 8 5 11 16 8 24 -3 8 0
20 6 26 18 18 29 13 17 -9z m-186 -6 c25 -10 19 -34 -8 -34 -29 0 -44 19 -25
31 17 11 14 10 33 3z m191 -66 c28 -13 32 -23 10 -32 -10 -4 -13 -14 -9 -36 4
-16 3 -30 -2 -30 -17 0 -55 71 -49 91 7 22 15 23 50 7z m-655 -78 c0 -5 -2
-10 -4 -10 -3 0 -8 5 -11 10 -3 6 -1 10 4 10 6 0 11 -4 11 -10z m700 6 c0 -3
-4 -8 -10 -11 -5 -3 -10 -1 -10 4 0 6 5 11 10 11 6 0 10 -2 10 -4z m-433 -32
c1 -5 -8 -14 -22 -21 -14 -6 -25 -7 -25 -2 0 5 5 9 10 9 6 0 10 7 10 16 0 16
21 15 27 -2z m-267 -8 c0 -3 -4 -8 -10 -11 -5 -3 -10 -1 -10 4 0 6 5 11 10 11
6 0 10 -2 10 -4z m250 -327 c-11 -20 -60 -27 -60 -9 0 6 -11 16 -25 22 -14 6
-25 17 -25 25 0 16 5 16 31 3 15 -8 19 -7 19 4 0 25 24 24 48 -1 17 -19 20
-28 12 -44z m423 -29 c4 -15 -2 -25 -21 -38 -15 -9 -31 -22 -35 -29 -11 -18
-27 -16 -27 3 0 14 -3 14 -15 4 -22 -19 -18 4 5 25 11 10 22 26 25 36 9 27 61
26 68 -1z m-604 -59 c8 -5 16 -21 18 -35 3 -21 -1 -26 -17 -26 -32 0 -60 18
-60 39 0 31 28 41 59 22z m307 -83 c-11 -31 -39 -36 -68 -14 -22 16 -23 40 -3
60 14 14 19 14 49 -2 30 -15 32 -19 22 -44z m200 17 c-1 -27 -16 -38 -34 -26
-9 5 -7 13 4 29 20 29 32 28 30 -3z m-336 -90 c0 -8 -7 -15 -16 -15 -14 0 -14
3 -4 15 7 8 14 15 16 15 2 0 4 -7 4 -15z m97 3 c9 -13 10 -54 1 -64 -11 -10
-36 9 -40 31 -7 36 20 58 39 33z m228 -38 c3 -5 2 -10 -4 -10 -5 0 -13 5 -16
10 -3 6 -2 10 4 10 5 0 13 -4 16 -10z m-398 -43 c3 -3 16 -2 29 4 19 7 26 5
31 -7 9 -23 -10 -30 -74 -27 -57 2 -80 13 -69 31 6 10 72 9 83 -1z m438 -7
c-3 -5 -14 -14 -25 -20 -15 -8 -17 -7 -13 10 3 11 14 20 25 20 10 0 16 -4 13
-10z m-710 -22 c-3 -31 -2 -30 -25 -18 -23 12 -16 40 10 40 12 0 17 -7 15 -22z
m741 -105 c-10 -10 -19 5 -10 18 6 11 8 11 12 0 2 -7 1 -15 -2 -18z m-586 7
c0 -5 -4 -10 -9 -10 -6 0 -13 5 -16 10 -3 6 1 10 9 10 9 0 16 -4 16 -10z m627
-47 c-3 -3 -13 -1 -22 4 -15 9 -15 11 2 28 17 18 18 18 21 -4 2 -12 1 -25 -1
-28z m-247 18 c0 -17 -12 -41 -21 -41 -5 0 -9 11 -9 25 0 16 6 25 15 25 8 0
15 -4 15 -9z m-161 -15 c8 -9 8 -21 1 -40 -12 -32 -15 -32 -36 -1 -13 20 -14
28 -4 40 15 19 24 19 39 1z m-147 -60 c13 -10 15 -15 6 -24 -17 -17 -43 -15
-59 4 -10 13 -10 17 2 25 19 12 31 11 51 -5z m-128 -51 c3 -9 -3 -19 -14 -25
-17 -9 -20 -7 -20 15 0 27 24 35 34 10z m93 -21 c-9 -9 -28 6 -21 18 4 6 10 6
17 -1 6 -6 8 -13 4 -17z m112 7 c14 -9 9 -41 -6 -41 -19 1 -33 18 -27 33 7 19
13 21 33 8z m161 -21 c0 -5 -4 -10 -10 -10 -5 0 -10 5 -10 10 0 6 5 10 10 10
6 0 10 -4 10 -10z m-490 -4 c0 -3 -4 -8 -10 -11 -5 -3 -10 -1 -10 4 0 6 5 11
10 11 6 0 10 -2 10 -4z m-100 -88 c0 -10 -7 -18 -15 -18 -8 0 -15 2 -15 4 0 2
-3 11 -6 20 -4 11 0 14 15 13 13 -1 21 -8 21 -19z m360 -16 c0 -13 -12 -22
-22 -16 -10 6 -1 24 13 24 5 0 9 -4 9 -8z m515 -2 c13 -6 15 -9 5 -9 -10 -1
-11 -4 -3 -9 8 -5 8 -12 -3 -26 -17 -24 -27 -16 -29 24 -2 32 -1 33 30 20z
m-145 -70 c0 -5 -4 -10 -10 -10 -5 0 -10 5 -10 10 0 6 5 10 10 10 6 0 10 -4
10 -10z m-496 -39 c3 -5 -1 -14 -8 -20 -16 -13 -32 2 -21 19 8 12 22 13 29 1z
m-289 -10 c2 -4 0 -12 -4 -19 -6 -9 -13 -8 -29 7 l-22 19 25 0 c14 0 27 -4 30
-7z m493 -68 c-9 -11 -14 -11 -28 4 -23 24 -15 35 15 21 20 -9 22 -14 13 -25z
m-388 -4 c0 -14 -37 -10 -43 4 -4 10 2 13 19 9 13 -2 24 -8 24 -13z m668 -16
c-2 -10 -14 -20 -28 -22 -25 -3 -25 -3 -6 18 23 26 39 27 34 4z m-165 -26 c-3
-5 -10 -4 -15 1 -6 6 -7 16 -3 22 6 9 9 9 16 -1 4 -7 5 -17 2 -22z m287 -18
c0 -23 -35 -34 -53 -17 -15 13 -11 48 7 60 14 9 46 -20 46 -43z m70 3 c0 -5
-7 -9 -15 -9 -8 0 -15 4 -15 9 0 4 7 8 15 8 8 0 15 -4 15 -8z m-1023 -38 c-9
-9 -28 6 -21 18 4 6 10 6 17 -1 6 -6 8 -13 4 -17z m654 3 c-1 -12 -15 -9 -19
4 -3 6 1 10 8 8 6 -3 11 -8 11 -12z m279 -27 c0 -5 -4 -10 -10 -10 -5 0 -10 5
-10 10 0 6 5 10 10 10 6 0 10 -4 10 -10z m-920 -10 c0 -5 -4 -10 -10 -10 -5 0
-10 5 -10 10 0 6 5 10 10 10 6 0 10 -4 10 -10z m192 -6 c7 -7 -2 -44 -11 -44
-17 1 -33 20 -28 34 6 16 28 22 39 10z m700 -57 c34 -26 9 -69 -34 -60 -21 4
-28 11 -28 29 0 13 8 28 18 33 22 13 24 13 44 -2z m-162 -47 c-6 -11 -13 -20
-15 -20 -3 0 -5 9 -5 20 0 11 7 20 15 20 13 0 14 -4 5 -20z m-316 -15 c3 -8 2
-16 -2 -19 -12 -7 -45 22 -38 33 8 13 33 4 40 -14z m-389 -24 c3 -5 1 -12 -4
-15 -5 -3 -11 1 -15 9 -6 16 9 21 19 6z m710 -1 c3 -5 -1 -10 -9 -10 -9 0 -16
5 -16 10 0 6 4 10 9 10 6 0 13 -4 16 -10z m-588 -62 c21 -26 11 -44 -24 -43
-35 0 -55 18 -46 42 6 17 57 17 70 1z m254 -34 c10 -9 15 -22 12 -30 -7 -19
-47 -18 -63 1 -11 13 -10 18 6 30 24 18 24 18 45 -1z m305 -105 c3 -5 -1 -9
-8 -9 -8 -1 -5 -7 7 -16 20 -15 20 -15 1 -30 -26 -18 -28 -18 -60 7 -34 27
-33 38 4 33 17 -3 30 -1 30 5 0 6 -3 10 -7 10 -5 -1 -15 -1 -23 0 -12 1 -13 3
-1 10 15 9 48 4 57 -10z m-471 -9 c3 -5 -1 -10 -9 -10 -9 0 -16 5 -16 10 0 6
4 10 9 10 6 0 13 -4 16 -10z m118 -25 c1 -5 -6 -11 -15 -13 -11 -2 -18 3 -18
13 0 17 30 18 33 0z m603 -14 c-12 -19 -24 -12 -19 10 4 13 9 17 15 11 6 -6 7
-15 4 -21z m-70 -53 c8 -25 -9 -37 -42 -30 -27 5 -31 24 -9 46 19 19 42 11 51
-16z m-721 12 c3 -5 -1 -10 -10 -10 -9 0 -13 5 -10 10 3 6 8 10 10 10 2 0 7
-4 10 -10z m-145 -26 c11 -12 11 -18 -2 -31 -15 -14 -17 -13 -27 6 -19 35 4
56 29 25z m444 -20 c9 -3 16 -11 16 -17 0 -6 7 -18 16 -28 15 -17 14 -18 -22
-12 -49 7 -73 32 -47 50 20 15 17 15 37 7z m-376 -23 c3 -8 -1 -12 -9 -9 -7 2
-15 10 -17 17 -3 8 1 12 9 9 7 -2 15 -10 17 -17z m434 -73 c-6 -6 -15 -8 -19
-4 -4 4 -1 11 7 16 8 5 17 7 19 4 3 -2 -1 -10 -7 -16z m-62 8 c0 -2 -7 -7 -16
-10 -8 -3 -12 -2 -9 4 6 10 25 14 25 6z m-115 -25 c7 -12 -12 -24 -25 -16 -11
7 -4 25 10 25 5 0 11 -4 15 -9z m267 -9 c-7 -2 -12 -10 -12 -18 0 -8 -4 -14
-10 -14 -5 0 -10 6 -10 13 0 19 21 37 34 30 6 -4 6 -8 -2 -11z m-372 -26 c0
-3 -4 -8 -10 -11 -5 -3 -10 -1 -10 4 0 6 5 11 10 11 6 0 10 -2 10 -4z m315
-16 c3 -5 -1 -10 -9 -10 -9 0 -16 5 -16 10 0 6 4 10 9 10 6 0 13 -4 16 -10z
m-114 -55 c5 4 9 -1 9 -9 0 -8 -4 -17 -10 -21 -5 -3 -7 -11 -4 -19 3 -9 -9
-13 -48 -14 -43 -1 -56 3 -66 18 -16 26 -5 53 19 47 11 -3 22 -1 25 4 3 5 16
9 30 9 13 0 25 6 25 13 1 6 4 2 6 -11 2 -12 9 -20 14 -17z m-271 15 c0 -5 -2
-10 -4 -10 -3 0 -8 5 -11 10 -3 6 -1 10 4 10 6 0 11 -4 11 -10z m780 0 c0 -5
-4 -10 -10 -10 -5 0 -10 5 -10 10 0 6 5 10 10 10 6 0 10 -4 10 -10z m-267 -24
c6 -16 -11 -36 -30 -36 -13 0 -18 32 -6 43 11 12 31 8 36 -7z m-453 -30 c0
-11 -19 -15 -25 -6 -3 5 1 10 9 10 9 0 16 -2 16 -4z m264 -17 c-3 -5 -10 -7
-15 -3 -5 3 -7 10 -3 15 3 5 10 7 15 3 5 -3 7 -10 3 -15z m-284 -21 c0 -4 -7
-8 -15 -8 -8 0 -15 4 -15 8 0 5 7 9 15 9 8 0 15 -4 15 -9z m-29 -17 c12 -11
19 -28 17 -42 -2 -18 -9 -23 -33 -24 -26 0 -30 4 -31 26 -1 15 -4 34 -7 43 -9
23 28 21 54 -3z m365 -18 c-10 -10 -19 5 -10 18 6 11 8 11 12 0 2 -7 1 -15 -2
-18z m-183 -33 c6 0 2 -6 -8 -14 -22 -16 -35 -12 -35 11 0 10 6 13 16 9 9 -3
21 -6 27 -6z m-263 -20 c0 -5 -5 -10 -11 -10 -5 0 -7 5 -4 10 3 6 8 10 11 10
2 0 4 -4 4 -10z m-157 -26 c-4 -10 -9 -12 -15 -6 -12 12 -1 35 12 27 5 -3 6
-13 3 -21z m177 -30 c0 -8 -4 -12 -10 -9 -5 3 -10 10 -10 16 0 5 5 9 10 9 6 0
10 -7 10 -16z m380 2 c0 -3 -4 -8 -10 -11 -5 -3 -10 -1 -10 4 0 6 5 11 10 11
6 0 10 -2 10 -4z m327 -23 c-3 -3 -11 -2 -17 2 -9 6 -9 10 1 16 14 8 27 -7 16
-18z m-658 -27 c9 -10 7 -17 -6 -27 -9 -8 -14 -9 -10 -2 4 6 2 13 -5 15 -6 2
-8 10 -4 16 9 15 11 15 25 -2z m491 -12 c0 -17 -22 -14 -28 4 -2 7 3 12 12 12
9 0 16 -7 16 -16z m120 -18 c0 -8 -7 -16 -15 -20 -17 -6 -18 -4 -9 18 8 20 24
21 24 2z m-740 -16 c0 -5 -4 -10 -10 -10 -5 0 -10 5 -10 10 0 6 5 10 10 10 6
0 10 -4 10 -10z m792 -67 c9 -10 24 -24 33 -31 23 -20 15 -47 -15 -47 -14 0
-25 5 -25 10 -1 12 -36 67 -49 76 -5 4 -5 12 -2 18 8 13 32 2 58 -26z m-1092
-10 c0 -17 -6 -17 -30 4 -28 24 -25 35 5 21 14 -6 25 -17 25 -25z m80 -4 c0
-5 -7 -9 -15 -9 -15 0 -20 12 -9 23 8 8 24 -1 24 -14z m1150 -24 c0 -16 -6
-25 -15 -25 -28 0 -18 40 13 49 1 1 2 -10 2 -24z m-1025 -22 c8 -24 -9 -37
-32 -24 -13 6 -23 7 -29 1 -9 -9 -11 20 -5 52 2 13 59 -13 66 -29z m760 17 c3
-5 1 -10 -4 -10 -6 0 -11 5 -11 10 0 6 2 10 4 10 3 0 8 -4 11 -10z m-449 -36
c-5 -13 -10 -14 -18 -6 -6 6 -8 18 -4 28 5 13 10 14 18 6 6 -6 8 -18 4 -28z
m201 0 c14 -22 14 -26 -1 -49 -17 -26 -72 -37 -64 -13 3 7 -1 19 -9 26 -7 7
-13 23 -13 36 0 18 6 22 35 23 27 1 40 -5 52 -23z m-114 -36 c14 -14 14 -18 4
-18 -8 0 -20 -7 -27 -15 -16 -19 -59 -15 -71 7 -7 12 -3 21 17 37 27 22 48 19
77 -11z m567 22 c0 -5 -2 -10 -4 -10 -3 0 -8 5 -11 10 -3 6 -1 10 4 10 6 0 11
-4 11 -10z m-1000 -81 c0 -11 -2 -19 -5 -19 -3 0 -13 8 -24 19 -18 18 -18 19
5 19 17 0 24 -6 24 -19z m745 11 c3 -5 -1 -10 -10 -10 -9 0 -13 5 -10 10 3 6
8 10 10 10 2 0 7 -4 10 -10z m-311 -35 c3 -8 3 -30 -1 -47 -5 -27 -7 -29 -14
-13 -11 28 -11 75 0 75 5 0 11 -7 15 -15z m43 -27 c-3 -7 -5 -2 -5 12 0 14 2
19 5 13 2 -7 2 -19 0 -25z m-89 5 c-5 -25 -25 -27 -38 -4 -10 19 -8 21 15 21
19 0 26 -5 23 -17z m422 -14 c0 -25 -33 -22 -38 4 -2 12 3 17 17 17 15 0 21
-6 21 -21z m-500 -4 c0 -8 4 -15 9 -15 17 0 20 -41 3 -46 -9 -3 -25 -10 -34
-15 -25 -13 -38 39 -14 56 9 7 16 17 16 24 0 6 5 11 10 11 6 0 10 -7 10 -15z
m570 5 c0 -5 -5 -10 -11 -10 -5 0 -7 5 -4 10 3 6 8 10 11 10 2 0 4 -4 4 -10z
m-926 -57 c4 -5 11 -8 15 -8 4 0 15 -8 25 -17 10 -10 12 -18 6 -18 -6 0 -9 -4
-5 -9 11 -18 -15 -22 -45 -6 -21 11 -30 23 -30 40 0 24 18 33 34 18z m631 -23
c3 -5 2 -10 -4 -10 -5 0 -13 5 -16 10 -3 6 -2 10 4 10 5 0 13 -4 16 -10z m279
-6 c9 -22 -3 -32 -14 -14 -12 19 -12 30 -1 30 5 0 12 -7 15 -16z m-498 -27
c24 9 22 -45 -4 -64 -26 -21 -30 -16 -27 35 3 55 6 64 12 40 2 -10 10 -15 19
-11z m122 5 c24 -3 32 -9 30 -21 -5 -23 -45 -15 -77 17 -21 21 -22 24 -6 17
11 -4 35 -10 53 -13z m121 -43 c-16 -10 -23 -4 -14 10 3 6 11 8 17 5 6 -4 5
-9 -3 -15z m-620 -3 c45 -2 50 -20 9 -32 -23 -7 -33 -16 -33 -29 0 -21 -21
-25 -63 -11 -17 6 -24 3 -29 -11 -8 -22 -23 -33 -47 -33 -17 0 -17 1 -2 25 18
27 20 36 9 33 -5 -1 -18 2 -31 6 -22 7 -22 8 13 32 42 28 49 30 41 8 -5 -12
-1 -14 17 -8 12 3 26 13 31 21 5 10 15 12 30 8 11 -4 36 -8 55 -9z m201 -8 c0
-13 -23 -5 -28 10 -2 7 2 10 12 6 9 -3 16 -11 16 -16z m-120 -8 c0 -5 -2 -10
-4 -10 -3 0 -8 5 -11 10 -3 6 -1 10 4 10 6 0 11 -4 11 -10z m55 -19 c3 -11 14
-22 23 -25 9 -2 -1 -2 -23 1 -49 7 -51 9 -35 28 17 20 27 19 35 -4z m102 12
c-4 -3 -1 -13 6 -21 10 -13 9 -14 -11 -3 -22 12 -22 31 0 31 6 0 8 -3 5 -7z
m60 -59 c-9 -9 -28 6 -21 18 4 6 10 6 17 -1 6 -6 8 -13 4 -17z m443 6 c0 -5
-4 -10 -10 -10 -5 0 -10 5 -10 10 0 6 5 10 10 10 6 0 10 -4 10 -10z m-570 -4
c0 -3 -4 -8 -10 -11 -5 -3 -10 -1 -10 4 0 6 5 11 10 11 6 0 10 -2 10 -4z
m-152 -18 c7 -7 8 -17 1 -29 -13 -25 -39 -13 -39 17 0 25 18 32 38 12z m52
-18 c0 -5 -5 -10 -11 -10 -5 0 -7 5 -4 10 3 6 8 10 11 10 2 0 4 -4 4 -10z
m530 -24 c0 -3 -7 -3 -15 0 -8 4 -15 13 -15 21 0 12 2 12 15 -1 8 -8 15 -17
15 -20z m-303 -1 c0 -8 -4 -12 -9 -9 -4 3 -8 9 -8 15 0 5 4 9 8 9 5 0 9 -7 9
-15z m188 -19 c19 -18 35 -38 35 -43 0 -6 6 -13 14 -16 7 -3 14 -18 14 -33 0
-15 7 -33 16 -39 19 -14 21 -35 4 -36 -10 0 -10 -2 0 -6 19 -8 14 -23 -8 -23
-11 0 -20 -5 -20 -11 0 -6 -6 -9 -12 -6 -7 2 -12 15 -10 29 2 15 -2 29 -7 33
-6 3 -11 15 -11 25 0 11 -9 24 -20 30 -11 6 -20 8 -20 4 0 -3 -7 -1 -15 6 -9
7 -13 20 -10 29 2 9 -1 27 -8 41 -30 57 7 67 58 16z m-228 1 c-3 -8 3 -20 13
-27 13 -9 16 -19 11 -29 -5 -9 -8 -37 -7 -63 3 -66 -9 -80 -28 -35 -8 21 -19
37 -23 36 -21 -3 -31 3 -41 26 -15 33 -8 47 29 64 17 7 33 20 36 27 3 8 7 14
10 14 3 0 3 -6 0 -13z m-278 -17 c19 -17 21 -23 11 -35 -7 -8 -19 -15 -27 -15
-7 0 -16 -7 -19 -15 -8 -20 -40 -19 -48 1 -4 9 0 24 9 34 8 9 15 24 15 33 0
23 29 21 59 -3z m169 -18 c2 -7 -2 -10 -12 -6 -9 3 -16 11 -16 16 0 13 23 5
28 -10z m-38 -2 c0 -5 -5 -10 -11 -10 -5 0 -7 5 -4 10 3 6 8 10 11 10 2 0 4
-4 4 -10z m527 -71 c-12 -3 -29 -3 -37 2 -9 4 -19 1 -26 -9 -10 -14 -11 -12
-11 9 0 17 8 31 26 41 25 14 27 14 48 -11 l21 -26 -21 -6z m-499 20 c-3 -8 -7
-3 -11 10 -4 17 -3 21 5 13 5 -5 8 -16 6 -23z m-308 11 c0 -5 -5 -10 -11 -10
-5 0 -7 5 -4 10 3 6 8 10 11 10 2 0 4 -4 4 -10z m336 -52 c-9 -5 -13 -15 -9
-25 4 -11 2 -14 -8 -11 -8 3 -13 11 -11 18 2 7 -3 17 -10 21 -10 7 -9 9 5 9 9
0 17 5 17 11 0 8 5 7 16 -2 14 -11 14 -13 0 -21z m-171 1 c-4 -5 -13 -9 -22
-9 -13 0 -13 3 -3 15 13 15 35 11 25 -6z m100 -42 c-1 -12 -3 -25 -4 -29 -3
-18 -50 17 -54 41 -7 37 -1 41 32 25 20 -10 28 -21 26 -37z m-127 7 c22 -15
22 -17 7 -34 -16 -17 -16 -22 -2 -49 9 -17 11 -31 6 -31 -5 0 -9 5 -9 10 0 6
-9 10 -19 10 -11 0 -22 6 -24 13 -4 9 -8 8 -17 -3 -10 -13 -11 -13 -7 2 3 9
-1 19 -9 22 -31 12 -7 76 29 76 12 0 33 -7 45 -16z m62 6 c0 -5 -5 -10 -11
-10 -5 0 -7 5 -4 10 3 6 8 10 11 10 2 0 4 -4 4 -10z m597 -6 c-3 -3 -12 -4
-19 -1 -8 3 -5 6 6 6 11 1 17 -2 13 -5z m-399 -57 c9 -31 4 -55 -5 -29 -3 6
-9 12 -15 12 -14 0 -38 26 -38 43 0 41 46 21 58 -26z m-101 -3 c-3 -3 -12 -4
-19 -1 -8 3 -5 6 6 6 11 1 17 -2 13 -5z m246 -42 c7 -16 11 -37 7 -47 -6 -16
-10 -14 -33 20 -14 21 -24 42 -21 47 11 17 33 7 47 -20z m-499 -72 c17 0 -4
-14 -24 -15 -13 -1 -20 5 -20 17 0 10 -5 18 -11 18 -5 0 -7 4 -4 10 4 6 15 2
27 -10 12 -11 26 -20 32 -20z m221 -90 c9 -15 -14 -40 -36 -40 -21 0 -25 20
-7 38 15 15 35 15 43 2z"/>
<path d="M4688 7695 c-2 -2 -25 -6 -53 -10 -68 -8 -134 -25 -166 -41 -15 -7
-29 -11 -31 -8 -10 10 -231 -84 -248 -105 -3 -3 -11 -7 -18 -9 -7 -1 -53 -30
-103 -64 -344 -234 -570 -615 -605 -1023 -8 -98 -8 -2576 0 -2695 7 -100 10
-117 37 -230 26 -103 67 -211 86 -227 8 -6 12 -16 9 -21 -14 -24 139 -255 242
-364 59 -62 135 -127 119 -102 -3 6 1 20 9 32 14 21 17 21 51 7 41 -17 57 -19
48 -5 -3 6 -1 10 4 10 6 0 11 -7 11 -15 0 -8 6 -12 14 -9 8 3 17 1 21 -5 3 -6
1 -11 -6 -11 -6 0 -1 -9 12 -20 13 -10 20 -20 14 -20 -5 0 1 -6 14 -13 14 -6
26 -19 28 -27 4 -12 3 -13 -5 -1 -5 7 -14 11 -20 7 -6 -3 -21 -2 -34 2 -12 4
-39 6 -58 3 l-35 -6 40 -25 c22 -14 46 -23 54 -22 7 2 11 -1 8 -5 -3 -5 3 -15
14 -22 18 -11 21 -9 26 8 3 12 9 21 14 21 5 0 4 -11 -1 -24 -8 -22 -4 -26 68
-59 99 -46 182 -78 182 -71 0 4 6 2 13 -5 10 -8 17 -7 25 1 7 7 12 9 12 4 0
-4 11 4 24 18 30 33 36 33 69 -5 14 -17 31 -28 36 -24 6 3 13 -6 17 -20 7 -27
28 -36 79 -34 17 0 42 -2 58 -6 l27 -7 0 96 c0 94 -8 129 -36 151 -23 18 -21
50 4 53 15 2 22 -2 22 -12 0 -9 3 -16 8 -16 4 0 7 31 6 70 0 50 -5 75 -17 88
-16 18 -16 20 2 36 16 15 17 23 9 53 -5 19 -7 37 -4 40 3 3 -1 15 -9 27 -20
28 -19 39 4 33 16 -4 19 0 15 17 -5 25 -7 77 -4 91 1 6 2 17 1 25 -1 13 -2 13
-12 0 -8 -11 -9 -9 -3 10 4 14 9 96 11 183 4 158 3 163 -29 158 -4 0 -10 10
-14 24 -3 13 -14 27 -23 30 -51 16 -121 119 -136 198 -4 20 -10 37 -14 37 -3
0 -5 153 -3 341 2 215 -1 338 -7 335 -5 -4 -12 -2 -15 3 -3 5 1 11 8 14 13 5
15 97 15 628 l1 622 -26 30 -26 30 26 16 26 16 0 211 c0 224 8 274 52 344 12
19 22 39 23 45 0 5 10 14 21 20 12 6 28 16 35 22 8 6 31 16 52 22 l37 13 0
102 c0 69 -4 108 -14 121 -7 11 -16 37 -19 58 -5 31 -2 42 15 59 22 22 22 27
22 415 l1 393 -52 -1 c-29 -1 -54 -3 -55 -4z m-8 -45 c0 -5 -2 -10 -4 -10 -3
0 -8 5 -11 10 -3 6 -1 10 4 10 6 0 11 -4 11 -10z m-137 -34 c6 -16 -2 -28 -14
-20 -12 7 -11 34 0 34 5 0 11 -6 14 -14z m57 -92 c0 -8 -5 -12 -10 -9 -6 4 -8
11 -5 16 9 14 15 11 15 -7z m-210 -110 c0 -8 -6 -14 -13 -14 -19 0 -27 10 -20
25 6 17 33 8 33 -11z m340 -64 c0 -5 -4 -10 -10 -10 -5 0 -10 5 -10 10 0 6 5
10 10 10 6 0 10 -4 10 -10z m-80 -10 c0 -5 -5 -10 -11 -10 -5 0 -7 5 -4 10 3
6 8 10 11 10 2 0 4 -4 4 -10z m-142 -31 c2 -15 -5 -32 -17 -43 -19 -18 -21
-17 -46 9 -26 25 -26 27 -9 46 25 28 68 20 72 -12z m22 -329 c0 -5 -7 -10 -16
-10 -8 0 -12 5 -9 10 3 6 10 10 16 10 5 0 9 -4 9 -10z m-640 -350 c0 -5 -7 -7
-15 -4 -8 4 -12 10 -9 15 6 11 24 2 24 -11z m604 -166 c3 -8 2 -12 -4 -9 -6 3
-10 10 -10 16 0 14 7 11 14 -7z m-524 -24 c0 -5 -5 -10 -11 -10 -5 0 -7 5 -4
10 3 6 8 10 11 10 2 0 4 -4 4 -10z m520 -89 c0 -6 -4 -13 -10 -16 -5 -3 -10 1
-10 9 0 9 5 16 10 16 6 0 10 -4 10 -9z m60 -10 c-5 -11 -15 -23 -20 -26 -15
-9 -12 -27 3 -19 6 4 4 -2 -6 -13 -27 -31 -54 -24 -62 17 -3 16 0 20 11 16 8
-3 24 5 36 19 27 31 54 35 38 6z m-690 -1 c0 -5 -4 -10 -10 -10 -5 0 -10 5
-10 10 0 6 5 10 10 10 6 0 10 -4 10 -10z m-322 -23 c4 -21 -27 -35 -38 -17
-12 19 0 42 19 38 9 -2 17 -11 19 -21z m262 -96 c0 -11 -40 -22 -53 -14 -5 3
-3 9 4 14 18 11 49 11 49 0z m-210 -125 c26 -28 21 -52 -12 -65 -20 -7 -26 -4
-40 23 -11 21 -13 36 -7 48 13 25 31 22 59 -6z m929 5 c8 -14 7 -20 -3 -24
-13 -5 -26 12 -26 34 0 16 19 10 29 -10z m-546 -135 c7 -16 -1 -26 -20 -26 -7
0 -13 9 -13 20 0 23 25 27 33 6z m-349 -18 c-3 -4 -9 -8 -15 -8 -5 0 -9 4 -9
8 0 5 7 9 15 9 8 0 12 -4 9 -9z m835 -157 c9 -6 10 -11 2 -15 -13 -8 -31 1
-31 15 0 11 11 11 29 0z m-157 -8 c-6 -2 -10 -9 -6 -14 3 -5 -1 -9 -10 -9 -8
0 -17 -6 -20 -12 -3 -9 -9 -7 -20 6 -19 23 -10 30 36 33 18 0 27 -1 20 -4z
m218 -38 c20 -24 4 -65 -24 -65 -51 0 -67 20 -50 64 8 20 57 21 74 1z m-480
-15 c0 -5 -5 -10 -11 -10 -5 0 -7 5 -4 10 3 6 8 10 11 10 2 0 4 -4 4 -10z
m-162 -151 c-2 -6 -8 -10 -13 -10 -5 0 -11 4 -13 10 -2 6 4 11 13 11 9 0 15
-5 13 -11z m-68 -19 c0 -5 -2 -10 -4 -10 -3 0 -8 5 -11 10 -3 6 -1 10 4 10 6
0 11 -4 11 -10z m680 3 c0 -5 -5 -15 -10 -23 -7 -12 -12 -12 -22 -2 -10 10
-10 15 2 22 18 12 30 13 30 3z m-10 -63 c0 -5 -4 -10 -9 -10 -6 0 -13 5 -16
10 -3 6 1 10 9 10 9 0 16 -4 16 -10z m-810 -69 c0 -3 -9 -21 -21 -40 l-20 -34
-21 20 c-22 22 -19 51 9 78 14 14 17 14 34 -1 11 -9 19 -20 19 -23z m68 -38
c13 -24 4 -43 -18 -43 -21 0 -45 34 -35 50 10 16 44 11 53 -7z m742 -24 c0 -5
-4 -9 -10 -9 -5 0 -10 7 -10 16 0 8 5 12 10 9 6 -3 10 -10 10 -16z m-675 -19
c11 -17 -5 -32 -21 -19 -7 6 -11 15 -8 20 7 12 21 11 29 -1z m600 -20 c3 -5 1
-10 -4 -10 -6 0 -11 5 -11 10 0 6 2 10 4 10 3 0 8 -4 11 -10z m103 -52 c-5
-15 -23 -11 -26 6 -2 11 2 14 13 10 9 -4 14 -11 13 -16z m-618 -139 c0 -24
-23 -21 -28 4 -2 10 3 17 12 17 10 0 16 -9 16 -21z m-280 -55 c0 -14 -3 -14
-15 -4 -8 7 -15 14 -15 16 0 2 7 4 15 4 8 0 15 -7 15 -16z m544 -5 c-9 -15
-34 -10 -28 5 3 8 12 12 20 9 8 -3 11 -9 8 -14z m147 -12 c-13 -13 -26 -3 -16
12 3 6 11 8 17 5 6 -4 6 -10 -1 -17z m133 -10 c14 -10 15 -18 7 -40 -12 -30
-14 -31 -42 -17 -26 14 -27 70 -1 70 10 0 26 -6 36 -13z m-811 -17 c4 -17 2
-18 -14 -9 -22 11 -25 29 -5 29 7 0 16 -9 19 -20z m505 -2 c-2 -15 -11 -24
-25 -26 -27 -4 -29 5 -6 30 22 24 35 23 31 -4z m142 12 c0 -5 -7 -10 -16 -10
-8 0 -12 5 -9 10 3 6 10 10 16 10 5 0 9 -4 9 -10z m75 -9 c10 -17 -12 -21 -25
-6 -10 12 -10 15 3 15 9 0 18 -4 22 -9z m-7 -108 c4 -25 -22 -37 -38 -17 -10
11 -10 17 0 29 17 20 34 14 38 -12z m-420 -44 c-2 -6 -8 -10 -13 -10 -5 0 -11
4 -13 10 -2 6 4 11 13 11 9 0 15 -5 13 -11z m72 -8 c0 -5 -7 -11 -15 -15 -15
-5 -20 5 -8 17 9 10 23 9 23 -2z m-327 -91 c3 -11 1 -22 -3 -25 -13 -8 -40 6
-40 19 0 31 35 35 43 6z m443 5 c19 -15 19 -15 0 -30 -28 -21 -63 -19 -76 5
-8 15 -8 21 2 24 7 3 20 7 28 9 23 8 25 8 46 -8z m332 -13 c2 -7 -3 -12 -12
-12 -9 0 -16 7 -16 16 0 17 22 14 28 -4z m-428 -108 c0 -21 -42 -47 -52 -31
-11 17 -10 24 7 41 17 17 45 11 45 -10z m90 -39 c7 -8 9 -15 6 -15 -4 0 -14 7
-22 15 -9 8 -11 15 -6 15 5 0 15 -7 22 -15z m255 -5 c3 -5 1 -10 -4 -10 -6 0
-11 5 -11 10 0 6 2 10 4 10 3 0 8 -4 11 -10z m175 0 c0 -5 -4 -10 -10 -10 -5
0 -10 5 -10 10 0 6 5 10 10 10 6 0 10 -4 10 -10z m-480 -25 c0 -8 -7 -15 -15
-15 -16 0 -20 12 -8 23 11 12 23 8 23 -8z m318 -75 c-24 -33 -38 -38 -38 -16
0 14 36 46 53 46 4 0 -2 -13 -15 -30z m-445 -39 c-6 -25 -22 -31 -50 -20 -24
9 -28 17 -15 35 20 31 74 18 65 -15z m-370 -1 c6 -25 -1 -30 -36 -23 -28 5
-37 27 -14 36 26 11 45 6 50 -13z m526 -9 c-15 -5 -22 6 -14 19 6 9 10 9 16
-1 5 -8 4 -15 -2 -18z m114 -116 c17 -23 17 -25 -2 -35 -16 -8 -23 -6 -34 11
-16 23 -12 60 6 53 7 -3 20 -16 30 -29z m-363 -35 c0 -5 -2 -10 -4 -10 -3 0
-8 5 -11 10 -3 6 -1 10 4 10 6 0 11 -4 11 -10z m-200 -21 c0 -5 -4 -9 -10 -9
-5 0 -10 7 -10 16 0 8 5 12 10 9 6 -3 10 -10 10 -16z m335 -37 c-29 -26 -30
-26 -39 4 -8 26 30 48 52 31 10 -8 8 -15 -13 -35z m543 8 c-4 -21 -68 -32 -75
-13 -8 19 12 31 48 29 20 0 29 -5 27 -16z m-448 -51 c0 -5 -7 -9 -15 -9 -15 0
-20 12 -9 23 8 8 24 -1 24 -14z m370 -9 c11 -11 32 -20 47 -20 26 0 26 -1 7
-15 -30 -23 -49 -18 -66 20 -18 40 -16 43 12 15z m-550 -20 c0 -5 -2 -10 -4
-10 -3 0 -8 5 -11 10 -3 6 -1 10 4 10 6 0 11 -4 11 -10z m88 -10 c-14 -22 -26
-25 -48 -10 -13 8 -12 10 5 11 11 1 23 1 28 0 4 0 7 4 7 9 0 6 5 10 10 10 6 0
5 -8 -2 -20z m42 -20 c0 -5 -4 -10 -9 -10 -6 0 -13 5 -16 10 -3 6 1 10 9 10 9
0 16 -4 16 -10z m34 -2 c-3 -4 -9 -8 -15 -8 -5 0 -9 4 -9 8 0 5 7 9 15 9 8 0
12 -4 9 -9z m304 -15 c-5 -26 -38 -29 -38 -4 0 15 6 21 21 21 14 0 19 -5 17
-17z m-778 -13 c10 -19 21 -80 14 -80 -10 0 -46 43 -54 64 -14 39 20 53 40 16z
m567 4 c9 -24 -13 -40 -31 -22 -11 11 -12 18 -3 27 15 15 27 14 34 -5z m278
-4 c9 -15 -6 -60 -21 -60 -14 0 -20 51 -7 63 9 10 21 9 28 -3z m-155 -20 c0
-5 -5 -10 -11 -10 -5 0 -7 5 -4 10 3 6 8 10 11 10 2 0 4 -4 4 -10z m-285 -10
c-3 -5 -10 -10 -16 -10 -5 0 -9 5 -9 10 0 6 7 10 16 10 8 0 12 -4 9 -10z m68
-19 c11 -1 8 -31 -4 -31 -5 0 -8 -4 -5 -8 7 -12 -7 -30 -28 -34 -26 -4 -43 52
-20 69 8 6 23 10 32 8 9 -2 20 -4 25 -4z m383 -88 c-10 -10 -19 5 -10 18 6 11
8 11 12 0 2 -7 1 -15 -2 -18z m-276 7 c0 -5 -2 -10 -4 -10 -3 0 -8 5 -11 10
-3 6 -1 10 4 10 6 0 11 -4 11 -10z m-33 -52 c-3 -7 -5 -2 -5 12 0 14 2 19 5
13 2 -7 2 -19 0 -25z m33 12 c0 -5 -4 -10 -10 -10 -5 0 -10 5 -10 10 0 6 5 10
10 10 6 0 10 -4 10 -10z m140 -90 c0 -5 -2 -10 -4 -10 -3 0 -8 5 -11 10 -3 6
-1 10 4 10 6 0 11 -4 11 -10z m-245 -20 c3 -5 1 -10 -4 -10 -6 0 -11 5 -11 10
0 6 2 10 4 10 3 0 8 -4 11 -10z m78 -24 c7 -18 -1 -26 -25 -26 -18 0 -25 20
-11 33 11 12 31 8 36 -7z m-119 -25 c11 -4 15 -10 9 -14 -5 -3 -19 0 -29 8
-20 15 -11 18 20 6z m-109 -11 c3 -5 4 -14 0 -20 -8 -13 -35 -1 -35 16 0 16
26 19 35 4z m495 -131 c0 -18 -2 -19 -15 -9 -15 12 -12 30 6 30 5 0 9 -10 9
-21z m-657 -55 c4 -14 -53 -9 -58 4 -4 10 0 13 15 9 11 -3 23 0 27 6 6 11 10
7 16 -19z m287 -15 c0 -5 -6 -9 -13 -9 -8 0 -14 6 -14 14 0 8 6 12 14 9 7 -3
13 -9 13 -14z m-143 -17 c7 -4 11 -17 11 -28 -2 -16 -7 -20 -23 -16 -27 7 -36
23 -23 39 12 15 18 16 35 5z m731 -10 c2 -7 -3 -12 -12 -12 -9 0 -16 7 -16 16
0 17 22 14 28 -4z m-958 -7 c0 -2 -7 -5 -15 -9 -9 -3 -15 0 -15 9 0 9 6 12 15
9 8 -4 15 -7 15 -9z m-64 -31 c-5 -14 -9 -15 -19 -5 -9 9 -9 14 3 21 18 11 24
6 16 -16z m764 -5 c11 -19 10 -20 -10 -9 -11 6 -18 15 -15 21 9 13 13 11 25
-12z m-85 1 c3 -5 1 -10 -4 -10 -6 0 -11 5 -11 10 0 6 2 10 4 10 3 0 8 -4 11
-10z m430 -21 c0 -7 -8 -15 -17 -17 -18 -3 -25 18 -11 32 10 10 28 1 28 -15z
m-765 -19 c13 -9 12 -12 -5 -25 -17 -14 -20 -13 -28 0 -8 15 -2 35 11 35 4 0
14 -5 22 -10z m308 -9 c3 -8 -1 -12 -9 -9 -7 2 -15 10 -17 17 -3 8 1 12 9 9 7
-2 15 -10 17 -17z m272 9 c0 -5 -5 -10 -11 -10 -5 0 -7 5 -4 10 3 6 8 10 11
10 2 0 4 -4 4 -10z m50 -44 c0 -18 -10 -25 -26 -19 -8 3 -14 16 -14 29 0 22 3
23 20 14 11 -6 20 -17 20 -24z m52 12 c-6 -6 -15 -8 -19 -4 -4 4 -1 11 7 16
19 12 27 3 12 -12z m-565 -34 c-9 -9 -28 6 -21 18 4 6 10 6 17 -1 6 -6 8 -13
4 -17z m-122 -14 c3 -5 1 -10 -4 -10 -6 0 -11 5 -11 10 0 6 2 10 4 10 3 0 8
-4 11 -10z m-99 -31 c10 -11 14 -20 9 -19 -23 5 -36 -1 -30 -12 4 -7 -1 -4 -9
6 -34 42 -6 65 30 25z m99 1 c-3 -5 2 -10 11 -10 14 0 15 -3 7 -11 -16 -16
-44 -4 -37 16 3 8 10 15 16 15 5 0 6 -4 3 -10z m285 -7 c-1 -18 -18 -35 -24
-24 -4 6 -4 16 -1 21 7 12 25 13 25 3z m-466 -47 c-9 -29 -10 -29 -33 -16 -25
13 -28 47 -3 52 26 6 43 -12 36 -36z m276 34 c0 -5 -5 -10 -11 -10 -5 0 -7 5
-4 10 3 6 8 10 11 10 2 0 4 -4 4 -10z m221 -40 c19 -11 27 -50 10 -50 -10 0
-27 -39 -23 -52 3 -13 -15 -9 -25 5 -16 22 -6 107 13 107 3 0 14 -5 25 -10z
m79 -44 c-1 -21 -1 -21 -15 -2 -21 27 -20 53 0 36 8 -7 15 -22 15 -34z m200
19 c0 -8 3 -14 8 -14 22 4 32 -3 32 -21 0 -17 -4 -18 -25 -10 -22 8 -25 7 -25
-12 0 -24 -12 -17 -17 10 -4 25 6 62 17 62 6 0 10 -7 10 -15z m-662 -29 c10
-6 10 -11 1 -22 -22 -26 -57 -10 -46 21 6 14 23 15 45 1z m897 -6 c3 -5 2 -10
-4 -10 -5 0 -13 5 -16 10 -3 6 -2 10 4 10 5 0 13 -4 16 -10z m-705 -10 c0 -5
-5 -10 -11 -10 -5 0 -7 5 -4 10 3 6 8 10 11 10 2 0 4 -4 4 -10z m655 -10 c3
-5 1 -10 -4 -10 -6 0 -11 5 -11 10 0 6 2 10 4 10 3 0 8 -4 11 -10z m-714 -23
c-1 -12 -15 -9 -19 4 -3 6 1 10 8 8 6 -3 11 -8 11 -12z m409 -17 c0 -5 -5 -10
-11 -10 -5 0 -7 5 -4 10 3 6 8 10 11 10 2 0 4 -4 4 -10z m110 -13 c0 -2 -10
-12 -21 -23 -22 -19 -22 -19 -8 4 12 19 29 30 29 19z m-518 -32 c6 -29 -12
-34 -33 -9 -10 13 -10 17 2 25 22 13 26 11 31 -16z m398 15 c0 -5 -5 -10 -11
-10 -5 0 -7 5 -4 10 3 6 8 10 11 10 2 0 4 -4 4 -10z m271 -6 c12 -14 11 -16
-5 -13 -11 2 -21 10 -24 17 -5 17 13 15 29 -4z m46 -10 c-3 -3 -12 -4 -19 -1
-8 3 -5 6 6 6 11 1 17 -2 13 -5z m-657 -24 c0 -5 -4 -10 -10 -10 -5 0 -10 5
-10 10 0 6 5 10 10 10 6 0 10 -4 10 -10z m97 -21 c3 -23 0 -26 -22 -21 -19 3
-25 11 -25 29 0 36 42 28 47 -8z m290 3 c21 -13 21 -14 4 -75 -9 -34 -21 -61
-26 -59 -6 1 -10 7 -10 13 0 7 -9 17 -20 23 -26 15 -34 26 -28 43 3 7 -2 16
-11 19 -20 8 -21 24 -1 24 8 0 14 3 14 8 -1 4 -1 10 0 14 2 12 54 5 78 -10z
m-240 -82 c3 -11 11 -20 18 -20 13 0 28 -24 30 -50 2 -21 -24 -50 -40 -44 -7
3 -18 -3 -24 -13 -28 -48 -38 -55 -61 -43 l-22 12 21 19 c21 20 28 39 13 39
-4 0 -23 13 -41 28 -26 22 -32 33 -27 49 13 41 123 60 133 23z m-187 -29 c0
-5 9 -11 20 -14 11 -3 20 -13 20 -22 0 -9 -9 -19 -20 -22 -11 -3 -20 -11 -20
-19 0 -20 -38 -12 -44 9 -6 26 13 77 30 77 8 0 14 -4 14 -9z m358 -66 c-3 -3
-9 2 -12 12 -6 14 -5 15 5 6 7 -7 10 -15 7 -18z m77 -4 c-6 -5 -19 -5 -30 -1
-17 7 -17 9 -2 9 9 1 17 6 17 13 0 9 3 9 12 0 8 -8 8 -15 3 -21z m322 -8 c-8
-9 -20 -12 -27 -8 -8 5 -6 11 7 20 23 17 39 7 20 -12z m-342 -22 c3 -5 1 -12
-5 -16 -5 -3 -10 1 -10 9 0 18 6 21 15 7z m295 -13 c0 -20 -35 -24 -60 -8 -13
9 -13 11 0 20 24 15 60 8 60 -12z m-103 -17 c1 -14 -3 -18 -13 -14 -17 6 -18
20 -1 26 6 3 12 6 12 6 1 1 1 -8 2 -18z m-42 -43 c-3 -18 -3 -28 2 -22 9 13
43 15 43 2 0 -4 -4 -8 -9 -8 -10 0 -7 -63 4 -80 3 -5 1 -10 -4 -10 -6 0 -11 6
-11 14 0 8 -5 18 -12 22 -7 4 -8 3 -4 -4 4 -7 5 -12 2 -12 -2 0 -12 -3 -22 -7
-15 -6 -16 -2 -10 36 6 37 4 43 -12 48 -30 7 -17 53 15 53 22 0 24 -3 18 -32z
m-91 3 c3 -5 -1 -15 -10 -22 -13 -10 -17 -10 -24 1 -6 9 -4 17 3 22 16 10 25
10 31 -1z m-24 -57 c0 -13 -3 -14 -15 -4 -12 10 -16 9 -21 -3 -3 -9 -12 -13
-19 -10 -20 7 2 28 32 31 15 1 23 -4 23 -14z m-250 -8 c0 -3 -4 -8 -10 -11 -5
-3 -10 -1 -10 4 0 6 5 11 10 11 6 0 10 -2 10 -4z m320 -35 c0 -5 -9 -12 -19
-16 -14 -4 -17 -12 -13 -28 3 -12 10 -25 15 -29 6 -3 12 -16 14 -27 2 -18 -1
-20 -23 -15 -20 5 -25 3 -22 -7 3 -8 -1 -20 -8 -27 -11 -10 -20 -9 -49 10 -28
19 -35 29 -35 56 0 17 0 35 -1 40 0 4 22 12 48 17 26 6 57 15 68 22 25 15 25
15 25 4z m-406 -25 c-3 -8 -12 -12 -20 -9 -17 6 -9 23 11 23 8 0 12 -6 9 -14z
m41 -6 c3 -5 1 -10 -4 -10 -6 0 -11 5 -11 10 0 6 2 10 4 10 3 0 8 -4 11 -10z
m125 -1 c0 -12 -29 -38 -42 -39 -5 0 -8 11 -8 25 0 20 5 25 25 25 14 0 25 -5
25 -11z m375 -8 c20 -1 26 -4 17 -10 -11 -7 -11 -9 2 -14 8 -3 17 -1 19 6 2 7
2 -1 -1 -18 -2 -16 -9 -32 -14 -34 -5 -2 -13 -14 -19 -27 -7 -21 -12 -23 -29
-14 -12 6 -23 24 -27 41 -5 28 -23 41 -23 18 0 -8 -4 -8 -14 0 -11 10 -17 8
-25 -6 -9 -16 -10 -16 -11 5 0 15 8 26 25 32 14 5 25 13 25 18 0 5 10 8 23 6
12 -1 36 -3 52 -3z m-345 -41 c0 -5 -7 -10 -15 -10 -8 0 -15 5 -15 10 0 6 7
10 15 10 8 0 15 -4 15 -10z m405 -49 c3 -5 1 -12 -5 -16 -5 -3 -10 1 -10 9 0
18 6 21 15 7z m-150 -11 c3 -5 1 -10 -4 -10 -6 0 -11 5 -11 10 0 6 2 10 4 10
3 0 8 -4 11 -10z"/>
<path d="M635 7627 c-9 -13 -20 -17 -31 -13 -26 10 -100 -31 -138 -76 -67 -78
-66 -62 -66 -765 0 -630 0 -634 20 -628 30 9 46 -39 25 -71 -8 -13 -22 -24
-30 -24 -12 0 -14 -17 -14 -82 0 -72 3 -85 21 -99 l21 -16 -22 -22 c-19 -19
-21 -31 -21 -162 0 -116 3 -143 16 -157 15 -14 15 -17 0 -27 -12 -9 -16 -29
-16 -73 0 -59 1 -62 31 -77 25 -14 30 -21 25 -41 -4 -16 -2 -24 6 -24 7 0 2
-9 -11 -19 -24 -18 -26 -58 -3 -53 7 1 12 -4 12 -12 0 -9 -7 -12 -19 -9 -25 6
-30 -13 -31 -102 0 -38 0 -86 0 -107 -1 -33 1 -36 22 -30 20 5 21 4 9 -11 -7
-9 -17 -14 -22 -11 -5 3 -9 -2 -9 -10 0 -9 5 -16 11 -16 5 0 7 -5 4 -10 -4 -6
-11 -8 -16 -5 -17 11 4 -30 25 -48 l21 -18 -22 6 -22 6 -1 -820 c0 -654 2
-820 12 -824 10 -4 11 -7 1 -18 -10 -9 -13 -69 -13 -223 0 -251 6 -273 89
-356 41 -40 71 -60 110 -73 62 -20 171 -23 189 -5 9 9 12 9 12 0 0 -8 18 -12
49 -12 39 0 49 3 47 16 0 9 5 19 12 21 7 3 12 -4 12 -17 0 -21 1 -21 214 -18
118 2 212 0 210 -4 -3 -4 2 -5 10 -2 19 7 17 -6 20 139 2 135 0 155 -21 155
-9 0 -13 9 -11 27 3 23 -2 28 -29 36 -29 9 -33 14 -33 44 0 26 4 33 16 31 10
-2 18 5 20 15 3 24 23 47 40 47 11 0 14 18 15 73 0 39 1 93 2 120 1 26 -2 47
-7 47 -4 0 -5 8 -2 17 9 22 10 1489 1 1502 -3 6 -12 8 -20 5 -10 -4 -12 0 -8
18 4 13 11 26 17 30 12 8 23 244 18 394 -3 86 -4 92 -22 87 -14 -4 -20 0 -20
11 0 9 8 16 20 16 22 0 21 -24 21 280 0 88 -1 183 -1 211 0 27 -4 48 -9 45 -5
-3 -11 1 -15 9 -3 9 0 15 9 15 11 0 14 22 17 98 5 169 -1 262 -17 262 -22 0
-18 31 5 37 11 3 17 9 14 14 -3 5 -5 71 -4 146 3 568 0 1216 -5 1221 -4 4
-169 7 -366 8 -347 0 -361 0 -374 -19z m361 -44 c2 -37 -11 -62 -24 -48 -13
14 -2 87 11 82 6 -2 12 -17 13 -34z m71 6 c14 -14 6 -39 -12 -39 -18 0 -28 17
-21 35 6 18 18 19 33 4z m-429 -121 c17 -17 15 -28 -7 -28 -19 0 -35 23 -24
34 9 9 18 7 31 -6z m622 -138 c0 -5 -2 -10 -4 -10 -3 0 -8 5 -11 10 -3 6 -1
10 4 10 6 0 11 -4 11 -10z m-240 -56 c0 -8 -4 -12 -10 -9 -5 3 -10 13 -10 21
0 8 5 12 10 9 6 -3 10 -13 10 -21z m106 -60 c8 -30 -11 -54 -42 -54 -41 0 -51
50 -16 76 22 16 51 5 58 -22z m-167 -75 c-19 -11 -36 0 -42 26 -6 36 4 39 30
8 17 -19 20 -29 12 -34z m295 -130 c-3 -5 -10 -7 -15 -3 -5 3 -7 10 -3 15 3 5
10 7 15 3 5 -3 7 -10 3 -15z m-293 -289 c23 -13 25 -28 4 -36 -17 -7 -49 21
-40 36 8 13 12 12 36 0z m-511 -146 c0 -8 -4 -12 -10 -9 -5 3 -10 10 -10 16 0
5 5 9 10 9 6 0 10 -7 10 -16z m520 -64 c0 -5 -4 -10 -9 -10 -6 0 -13 5 -16 10
-3 6 1 10 9 10 9 0 16 -4 16 -10z m-26 -29 c9 -14 -4 -41 -19 -41 -18 0 -28
17 -21 35 6 17 32 20 40 6z m350 -46 c3 -9 0 -15 -9 -15 -16 0 -27 14 -18 24
10 10 21 7 27 -9z m-329 -15 c3 -6 -1 -7 -9 -4 -18 7 -21 14 -7 14 6 0 13 -4
16 -10z m55 -14 c0 -2 -7 -6 -15 -10 -8 -3 -15 -1 -15 4 0 6 7 10 15 10 8 0
15 -2 15 -4z m-166 -72 c13 -34 7 -54 -18 -54 -36 0 -50 25 -37 68 3 10 50 -1
55 -14z m166 -38 c0 -3 -4 -8 -10 -11 -5 -3 -10 -1 -10 4 0 6 5 11 10 11 6 0
10 -2 10 -4z m-36 -48 c6 -4 7 -10 4 -14 -11 -10 -40 24 -32 38 6 9 9 8 12 -2
3 -8 10 -18 16 -22z m-169 -118 c3 -5 1 -10 -4 -10 -6 0 -11 5 -11 10 0 6 2
10 4 10 3 0 8 -4 11 -10z m380 -249 c3 -5 1 -12 -5 -16 -5 -3 -10 1 -10 9 0
18 6 21 15 7z m68 -66 c7 -16 -8 -29 -23 -20 -15 9 -12 35 4 35 8 0 16 -7 19
-15z m-186 -41 c9 -23 -11 -38 -26 -20 -13 16 -7 36 10 36 5 0 12 -7 16 -16z
m-180 -50 c-3 -3 -12 -4 -19 -1 -8 3 -5 6 6 6 11 1 17 -2 13 -5z m-105 -133
c5 -1 6 -11 4 -23 -3 -25 -32 -36 -48 -20 -15 15 0 51 20 47 9 -2 20 -4 24 -4z
m578 -132 c0 -5 -10 -9 -21 -9 -18 0 -19 2 -9 15 12 15 30 12 30 -6z m-83 -15
c-9 -9 -28 6 -21 18 4 6 10 6 17 -1 6 -6 8 -13 4 -17z m-397 -9 c25 -30 -4
-84 -48 -91 -23 -4 -34 0 -46 18 -21 30 -20 65 2 77 26 15 78 13 92 -4z m-440
-25 c0 -5 -9 -10 -20 -10 -11 0 -20 5 -20 10 0 6 9 10 20 10 11 0 20 -4 20
-10z m674 -78 c9 -14 -9 -31 -23 -23 -7 5 -10 14 -7 20 8 13 23 14 30 3z
m-294 -18 c0 -8 -5 -12 -10 -9 -6 4 -8 11 -5 16 9 14 15 11 15 -7z m-220 -35
c0 -22 -22 -25 -39 -6 -8 10 -8 16 0 24 16 16 39 5 39 -18z m198 10 c-2 -6 -8
-10 -13 -10 -5 0 -11 4 -13 10 -2 6 4 11 13 11 9 0 15 -5 13 -11z m314 -24 c0
-5 -5 -11 -11 -13 -6 -2 -11 4 -11 13 0 9 5 15 11 13 6 -2 11 -8 11 -13z
m-129 -107 c7 -20 -12 -48 -28 -42 -23 9 -19 54 4 54 11 0 21 -6 24 -12z
m-256 -38 c1 -21 -3 -25 -21 -25 -37 2 -47 13 -33 36 17 28 51 21 54 -11z
m-99 -3 c2 -12 -3 -17 -17 -17 -15 0 -21 6 -21 21 0 25 33 22 38 -4z m152 -7
c0 -5 -4 -10 -10 -10 -5 0 -10 5 -10 10 0 6 5 10 10 10 6 0 10 -4 10 -10z
m380 -40 c7 -14 7 -22 -3 -32 -8 -7 -12 -21 -9 -32 5 -17 -30 -55 -51 -56 -12
0 -2 107 12 124 18 22 38 20 51 -4z m-150 -50 c0 -5 -4 -10 -10 -10 -5 0 -10
5 -10 10 0 6 5 10 10 10 6 0 10 -4 10 -10z m-316 -131 c-3 -5 -10 -7 -15 -3
-5 3 -7 10 -3 15 3 5 10 7 15 3 5 -3 7 -10 3 -15z m288 -171 c-8 -8 -9 -4 -5
13 4 13 8 18 11 10 2 -7 -1 -18 -6 -23z m242 26 c20 -8 9 -34 -14 -34 -10 0
-20 -5 -22 -12 -3 -8 -7 -8 -11 -2 -3 6 1 20 9 32 17 24 16 24 38 16z m130
-55 c-8 -14 -34 -11 -34 4 0 8 3 17 7 20 9 9 34 -13 27 -24z m-894 -178 c0 -6
-4 -13 -10 -16 -5 -3 -10 1 -10 9 0 9 5 16 10 16 6 0 10 -4 10 -9z m803 -58
c4 -3 2 -12 -4 -20 -9 -10 -15 -10 -25 -2 -8 6 -11 15 -8 20 6 11 28 12 37 2z
m-159 -32 c3 -4 3 -11 0 -14 -8 -8 -34 3 -34 14 0 11 27 12 34 0z m-92 -63
c-7 -7 -12 -8 -12 -2 0 14 12 26 19 19 2 -3 -1 -11 -7 -17z m-232 -114 c0 -19
-4 -23 -22 -20 -13 3 -26 5 -30 5 -13 1 -3 42 12 51 19 12 40 -7 40 -36z
m-137 -98 c8 -20 -20 -43 -35 -28 -14 14 -3 42 16 42 7 0 16 -6 19 -14z m568
-76 c0 -3 2 -17 4 -32 3 -22 -3 -31 -26 -45 -20 -12 -29 -24 -25 -35 2 -10 0
-18 -5 -18 -5 0 -9 -8 -9 -17 0 -13 -6 -10 -19 11 -11 17 -18 33 -15 37 2 4
-3 10 -12 13 -8 3 -12 11 -9 16 5 8 11 7 21 -1 20 -16 17 0 -3 24 -16 18 -16
20 -1 14 19 -7 31 16 17 30 -7 7 -5 16 6 27 15 15 19 15 46 -1 16 -10 29 -20
30 -23z m-326 -11 c0 -7 -8 -15 -17 -17 -12 -2 -18 3 -18 16 0 14 6 19 18 18
9 -2 17 -9 17 -17z m-78 -25 c-3 -3 -12 -4 -19 -1 -8 3 -5 6 6 6 11 1 17 -2
13 -5z m241 -48 c-4 -27 -34 -33 -41 -7 -2 10 0 24 5 29 16 16 39 2 36 -22z
m-498 -10 c0 -18 -21 -35 -36 -29 -17 6 -18 40 -1 46 17 6 37 -3 37 -17z m756
-66 c8 0 14 -10 14 -25 0 -16 6 -25 15 -25 20 0 19 -5 -7 -40 -23 -32 -46 -38
-66 -18 -9 9 -12 9 -12 -2 0 -9 -5 -8 -20 5 -22 20 -27 40 -7 32 6 -2 21 -1
32 4 16 6 17 8 3 8 -9 1 -18 11 -20 24 -4 25 20 49 40 42 8 -3 20 -5 28 -5z
m-561 -30 c3 -5 1 -10 -4 -10 -6 0 -11 5 -11 10 0 6 2 10 4 10 3 0 8 -4 11
-10z m138 -6 c11 -11 -3 -24 -18 -18 -8 4 -12 10 -9 15 6 11 18 12 27 3z m305
-24 c11 -19 10 -20 -23 -20 -28 0 -35 4 -35 19 0 35 36 35 58 1z m-138 6 c0
-3 -4 -8 -10 -11 -5 -3 -10 -1 -10 4 0 6 5 11 10 11 6 0 10 -2 10 -4z m54 -61
c-18 -14 -17 -15 11 -13 44 3 63 -11 40 -29 -19 -13 -64 -19 -52 -6 4 3 -1 12
-10 18 -14 11 -20 10 -30 -4 -12 -14 -13 -14 -11 4 3 21 33 44 57 45 11 0 9
-4 -5 -15z m151 -45 c3 -5 -3 -10 -15 -10 -12 0 -18 5 -15 10 3 6 10 10 15 10
5 0 12 -4 15 -10z m-395 -50 c0 -27 -16 -33 -35 -13 -16 16 -16 17 0 30 22 15
35 9 35 -17z m-295 -2 c44 -20 42 -83 -3 -107 -24 -13 -35 -4 -61 43 -19 37
-19 41 -4 58 19 21 33 22 68 6z m515 8 c0 -3 -4 -8 -10 -11 -5 -3 -10 -1 -10
4 0 6 5 11 10 11 6 0 10 -2 10 -4z m-107 -89 c-4 -6 -8 -16 -8 -21 0 -5 -6
-11 -13 -14 -7 -2 -10 2 -6 11 3 10 -1 17 -13 19 -16 3 -16 5 6 27 21 21 25
22 33 7 5 -9 6 -22 1 -29z m88 11 c4 -36 -2 -64 -18 -75 -23 -17 -34 -16 -27
2 4 8 1 15 -5 15 -6 0 -11 4 -11 10 0 5 7 7 16 3 14 -5 15 -3 6 14 -8 14 -8
23 0 31 16 16 38 15 39 0z m-81 -99 c0 -12 -27 -11 -35 1 -11 17 5 32 21 19 8
-6 14 -15 14 -20z m-207 9 c3 -10 7 -10 19 0 13 10 18 8 33 -15 10 -16 29 -38
42 -51 25 -23 23 -45 -2 -35 -10 3 -15 -1 -15 -12 0 -9 4 -14 8 -11 5 3 8 -5
7 -17 -1 -15 -9 -23 -26 -25 -13 -2 -31 -10 -40 -18 -14 -13 -19 -12 -39 4
-21 17 -21 19 -5 35 23 23 12 64 -20 79 -29 13 -30 20 -9 53 18 27 40 33 47
13z m171 -73 c3 -8 2 -15 -3 -15 -5 0 -14 7 -21 15 -10 12 -10 15 3 15 8 0 17
-7 21 -15z m43 -7 c-3 -8 -6 -5 -6 6 -1 11 2 17 5 13 3 -3 4 -12 1 -19z m33
-8 c0 -5 -5 -10 -11 -10 -5 0 -7 5 -4 10 3 6 8 10 11 10 2 0 4 -4 4 -10z m-80
-141 c0 -10 -4 -19 -10 -19 -5 0 -10 12 -10 26 0 14 4 23 10 19 6 -3 10 -15
10 -26z m-460 -3 c0 -8 -7 -16 -15 -20 -10 -4 -15 1 -15 14 0 11 7 20 15 20 8
0 15 -6 15 -14z m94 -47 c-9 -15 -34 -10 -41 7 -9 23 19 38 34 17 7 -9 10 -20
7 -24z m431 20 c12 -19 -5 -23 -22 -6 -16 16 -16 17 -1 17 9 0 20 -5 23 -11z
m25 -87 c0 -8 -9 -11 -27 -8 -16 2 -31 5 -36 5 -4 1 -2 9 4 19 10 16 16 17 35
8 13 -6 24 -17 24 -24z m-549 -17 c0 -5 -9 -11 -21 -13 -20 -3 -27 8 -13 22
10 9 34 3 34 -9z m761 -18 c15 -32 15 -33 -9 -44 -35 -17 -53 -6 -53 31 0 57
37 65 62 13z m-642 -7 c0 -5 -5 -10 -11 -10 -5 0 -7 5 -4 10 3 6 8 10 11 10 2
0 4 -4 4 -10z m489 -79 c9 -6 12 -18 8 -32 -3 -13 -2 -29 4 -35 7 -9 4 -16
-11 -24 -25 -14 -43 -4 -35 19 3 10 -3 28 -15 41 -11 12 -17 27 -14 31 7 12
45 11 63 0z m116 -31 c-3 -5 -10 -10 -16 -10 -5 0 -9 5 -9 10 0 6 7 10 16 10
8 0 12 -4 9 -10z m-150 -131 c9 -7 12 -39 6 -71 -4 -24 -81 12 -81 37 0 32 50
54 75 34z m-335 -69 c9 -17 8 -20 -9 -20 -14 0 -18 5 -14 20 3 11 7 20 9 20 2
0 8 -9 14 -20z m105 11 c3 -5 1 -12 -5 -16 -5 -3 -10 1 -10 9 0 18 6 21 15 7z
m-245 -11 c0 -5 -5 -10 -11 -10 -5 0 -7 5 -4 10 3 6 8 10 11 10 2 0 4 -4 4
-10z m16 -66 c-6 -17 -8 -17 -24 0 -15 15 -15 18 -2 26 19 12 35 -3 26 -26z
m462 24 c-2 -6 8 -14 22 -18 17 -4 21 -8 12 -14 -6 -4 -16 -5 -21 -1 -5 3 -12
1 -16 -4 -3 -6 -13 -4 -24 6 -15 12 -16 19 -8 29 15 16 38 18 35 2z m-488 -64
c0 -8 -4 -14 -9 -14 -11 0 -22 26 -14 34 9 9 23 -3 23 -20z m559 2 c-12 -10
-49 -16 -49 -7 0 5 10 11 23 13 22 4 34 1 26 -6z m51 -171 c0 -8 -4 -15 -10
-15 -5 0 -10 7 -10 15 0 8 5 15 10 15 6 0 10 -7 10 -15z m103 -16 c-9 -9 -12
-7 -10 9 1 14 5 18 11 12 7 -7 6 -14 -1 -21z m-63 2 c0 -21 -13 -41 -26 -41
-14 0 -19 31 -7 43 10 10 33 8 33 -2z m-162 -23 c-6 -18 -25 -21 -31 -5 -3 8
3 13 15 14 10 1 18 -3 16 -9z"/>
<path d="M1490 7101 l0 -530 118 0 c126 -1 161 -7 219 -41 53 -30 84 -73 110
-149 21 -64 21 -67 20 -865 l-2 -801 27 -17 c48 -30 50 -90 3 -108 -14 -5 -25
-15 -26 -22 0 -7 -2 -188 -3 -403 -3 -419 -6 -443 -59 -520 -61 -87 -111 -108
-274 -113 l-133 -4 0 -182 c-1 -99 0 -287 0 -416 1 -129 1 -253 0 -274 -1 -22
5 -43 12 -48 10 -8 10 -11 1 -15 -8 -3 -13 -25 -13 -59 0 -36 4 -54 13 -55 67
-5 127 -2 150 9 17 8 27 9 27 2 0 -5 4 -10 9 -10 4 0 6 12 3 27 -5 25 -3 26
11 15 9 -8 14 -19 11 -26 -7 -18 132 -22 154 -4 8 7 20 13 26 13 6 1 24 7 39
15 19 9 31 10 35 3 4 -5 18 -16 31 -22 20 -11 27 -10 53 9 25 18 32 20 39 9 5
-8 9 -17 9 -22 0 -7 17 -5 95 9 64 11 204 57 199 65 -10 17 7 28 30 20 18 -7
37 -1 92 30 38 21 68 44 66 50 -1 6 3 9 10 6 31 -10 200 157 285 284 77 113
201 418 174 427 -6 2 -8 8 -5 14 3 5 -3 12 -15 15 -21 5 -37 36 -26 52 3 5 14
9 25 8 14 -1 20 -9 20 -25 0 -40 18 -14 29 41 26 130 32 194 33 372 2 499 -10
2636 -15 2665 -4 19 -14 69 -22 110 -41 212 -123 409 -235 559 -135 182 -294
299 -497 367 -152 51 -244 61 -568 63 l-285 1 0 -529z m435 331 c16 -16 30
-39 32 -52 11 -72 -98 -63 -125 10 -8 20 -6 30 11 48 27 29 48 28 82 -6z m775
-112 c0 -5 -5 -10 -11 -10 -5 0 -7 5 -4 10 3 6 8 10 11 10 2 0 4 -4 4 -10z
m-442 -78 c3 -9 -2 -13 -14 -10 -9 1 -19 9 -22 16 -3 9 2 13 14 10 9 -1 19 -9
22 -16z m540 -25 c2 -10 -3 -17 -12 -17 -10 0 -16 9 -16 21 0 24 23 21 28 -4z
m-44 -162 c-3 -8 -12 -11 -20 -8 -15 5 -19 25 -7 36 10 11 32 -13 27 -28z
m-994 -11 c0 -9 -5 -14 -12 -12 -18 6 -21 28 -4 28 9 0 16 -7 16 -16z m-96
-125 c-9 -15 -34 -10 -41 7 -9 23 19 38 34 17 7 -9 10 -20 7 -24z m979 5 c-7
-18 -33 -18 -33 -1 0 19 10 27 25 20 8 -2 11 -11 8 -19z m113 -75 c9 -16 -18
-30 -33 -17 -7 6 -10 14 -7 19 7 13 31 11 40 -2z m148 -78 c9 -14 -4 -41 -19
-41 -15 0 -24 19 -17 38 5 14 28 16 36 3z m-865 -73 c-12 -23 -32 -19 -37 7
-5 22 18 37 35 23 9 -7 10 -15 2 -30z m668 25 c3 -7 -3 -9 -16 -6 -12 3 -21
10 -21 15 0 13 32 6 37 -9z m-271 -14 c3 -6 0 -15 -7 -20 -14 -8 -32 9 -23 23
7 11 22 10 30 -3z m-156 -39 c0 -13 -5 -18 -15 -14 -16 7 -19 17 -8 27 12 13
23 7 23 -13z m250 -69 c0 -12 -20 -25 -27 -18 -7 7 6 27 18 27 5 0 9 -4 9 -9z
m-490 -42 c11 -6 8 -9 -12 -14 -35 -9 -69 2 -61 20 5 15 39 12 73 -6z m494 6
c-7 -16 -24 -21 -24 -6 0 8 7 13 27 20 1 1 0 -6 -3 -14z m-314 -159 c0 -3 -4
-8 -10 -11 -5 -3 -10 -1 -10 4 0 6 5 11 10 11 6 0 10 -2 10 -4z m457 -42 c14
-14 14 -16 -2 -28 -15 -11 -21 -10 -36 2 -14 12 -15 19 -7 29 14 17 26 16 45
-3z m137 -139 c3 -8 1 -15 -4 -15 -6 0 -10 7 -10 15 0 8 2 15 4 15 2 0 6 -7
10 -15z m-234 -99 c0 -21 -21 -31 -30 -15 -5 7 -6 17 -4 21 9 14 34 9 34 -6z
m-429 -19 c-1 -12 -15 -9 -19 4 -3 6 1 10 8 8 6 -3 11 -8 11 -12z m519 -76 c0
-6 -4 -12 -8 -15 -5 -3 -9 1 -9 9 0 8 4 15 9 15 4 0 8 -4 8 -9z m-390 -39 c0
-11 -46 -32 -54 -25 -7 7 24 32 42 33 6 0 12 -4 12 -8z m-187 -64 c7 -21 -4
-38 -23 -38 -10 0 -20 6 -23 13 -7 20 4 37 23 37 10 0 20 -6 23 -12z m482 -18
c3 -5 1 -10 -4 -10 -6 0 -11 5 -11 10 0 6 2 10 4 10 3 0 8 -4 11 -10z m325
-44 c0 -17 -24 -28 -45 -20 -11 5 -12 9 -2 20 16 17 47 18 47 0z m-572 -55
c-2 -9 -14 -16 -29 -17 -23 -1 -26 3 -24 26 4 47 16 56 37 30 10 -13 17 -30
16 -39z m350 -219 c3 -25 0 -32 -15 -32 -10 0 -26 7 -36 14 -15 12 -16 18 -7
35 17 33 54 22 58 -17z m-418 8 c0 -5 -2 -10 -4 -10 -3 0 -8 5 -11 10 -3 6 -1
10 4 10 6 0 11 -4 11 -10z m735 0 c3 -5 1 -10 -4 -10 -6 0 -11 5 -11 10 0 6 2
10 4 10 3 0 8 -4 11 -10z m-430 -40 c3 -5 1 -10 -4 -10 -6 0 -11 5 -11 10 0 6
2 10 4 10 3 0 8 -4 11 -10z m108 -46 c3 -3 3 -12 0 -20 -4 -11 -9 -12 -19 -3
-8 6 -14 15 -14 20 0 10 24 12 33 3z m-433 -19 c13 -16 6 -35 -15 -35 -20 0
-39 37 -22 43 20 9 24 8 37 -8z m813 -11 c9 -10 -4 -34 -18 -34 -17 0 -28 17
-20 30 7 11 28 13 38 4z m-323 -24 c0 -5 -7 -10 -15 -10 -8 0 -15 5 -15 10 0
6 7 10 15 10 8 0 15 -4 15 -10z m-52 -39 c3 -8 -1 -12 -9 -9 -7 2 -15 10 -17
17 -3 8 1 12 9 9 7 -2 15 -10 17 -17z m247 -41 c3 -5 1 -10 -4 -10 -6 0 -11 5
-11 10 0 6 2 10 4 10 3 0 8 -4 11 -10z m-40 -48 c-3 -3 -11 0 -18 7 -9 10 -8
11 6 5 10 -3 15 -9 12 -12z m-787 -81 c20 -12 11 -55 -12 -59 -22 -5 -36 13
-36 46 0 23 23 29 48 13z m115 -219 c-38 -28 -72 5 -53 52 l11 29 30 -34 c28
-31 29 -34 12 -47z m103 49 c-1 -30 -36 -54 -36 -25 0 8 4 14 9 14 6 0 8 9 6
20 -2 12 2 20 9 20 9 0 13 -11 12 -29z m404 -51 c0 -5 -2 -10 -4 -10 -3 0 -8
5 -11 10 -3 6 -1 10 4 10 6 0 11 -4 11 -10z m164 -9 c3 -4 3 -11 0 -14 -8 -8
-34 3 -34 14 0 11 27 12 34 0z m-589 -31 c3 -5 -1 -10 -9 -10 -9 0 -16 5 -16
10 0 6 4 10 9 10 6 0 13 -4 16 -10z m590 -85 c0 -28 -29 -25 -33 3 -3 19 0 23
15 20 10 -2 18 -12 18 -23z m-640 -15 c2 -4 -7 -5 -20 -2 -14 2 -25 8 -25 12
0 10 38 1 45 -10z m-45 -20 c20 0 20 -22 1 -58 -6 -11 -8 -22 -5 -24 10 -10
-21 -15 -43 -7 -16 6 -23 17 -23 34 0 37 18 68 37 61 8 -3 23 -6 33 -6z m750
0 c0 -5 -4 -10 -10 -10 -5 0 -10 5 -10 10 0 6 5 10 10 10 6 0 10 -4 10 -10z
m-145 -44 c0 -22 -14 -29 -34 -17 -19 12 -6 43 16 39 10 -2 18 -12 18 -22z
m-181 -81 c-3 -7 -12 -11 -20 -8 -17 6 -18 20 -1 26 18 6 27 -1 21 -18z m56
-25 c0 -5 -4 -10 -10 -10 -5 0 -10 5 -10 10 0 6 5 10 10 10 6 0 10 -4 10 -10z
m178 -1 c-2 -6 -8 -10 -13 -10 -5 0 -11 4 -13 10 -2 6 4 11 13 11 9 0 15 -5
13 -11z m129 -66 c-22 -23 -38 -6 -26 26 9 23 11 24 26 8 16 -16 16 -18 0 -34z
m-387 17 c0 -5 -2 -10 -4 -10 -3 0 -8 5 -11 10 -3 6 -1 10 4 10 6 0 11 -4 11
-10z m190 -65 c0 -19 -13 -25 -29 -15 -19 11 -6 41 14 34 8 -3 15 -12 15 -19z
m-644 -98 c13 -13 12 -83 -1 -103 -14 -23 -4 -44 21 -44 7 0 16 -5 19 -10 9
-15 -4 -50 -19 -50 -16 0 -81 72 -103 114 -18 33 -18 87 0 98 12 7 75 4 83 -5z
m-103 -216 c3 -11 2 -23 -2 -26 -3 -4 -7 -11 -7 -16 -1 -5 -2 -11 -3 -14 0 -3
-12 5 -26 18 -17 15 -24 29 -19 40 9 24 50 22 57 -2z m1012 0 c3 -5 1 -12 -5
-16 -5 -3 -10 1 -10 9 0 18 6 21 15 7z m-419 -57 c9 -37 -15 -51 -39 -22 -18
21 -18 23 -1 35 26 19 33 16 40 -13z m-466 -4 c0 -5 -5 -10 -11 -10 -5 0 -7 5
-4 10 3 6 8 10 11 10 2 0 4 -4 4 -10z m130 -5 c0 -8 -6 -15 -14 -15 -17 0 -28
14 -19 24 12 12 33 6 33 -9z m-140 -46 c0 -5 5 -7 11 -4 6 4 5 -2 -3 -14 -17
-28 -24 -27 -24 4 0 14 4 25 8 25 4 0 8 -5 8 -11z m-100 -33 c0 -3 -4 -8 -10
-11 -5 -3 -10 -1 -10 4 0 6 5 11 10 11 6 0 10 -2 10 -4z m428 -39 c3 -12 -3
-17 -22 -17 -28 0 -29 1 -20 25 8 20 38 15 42 -8z m-308 4 c0 -6 -4 -13 -10
-16 -5 -3 -10 1 -10 9 0 9 5 16 10 16 6 0 10 -4 10 -9z m751 -116 c-1 -15 -24
-12 -29 3 -3 9 2 13 12 10 10 -1 17 -7 17 -13z m-881 -39 c0 -8 -4 -17 -9 -20
-10 -7 -23 19 -14 28 11 11 23 6 23 -8z m890 -45 c-9 -18 -30 -29 -30 -17 0 2
-3 12 -7 22 -4 10 -2 15 3 11 6 -3 16 -2 24 3 20 12 24 5 10 -19z m-423 3 c7
-18 -17 -38 -31 -24 -11 11 -1 40 14 40 6 0 13 -7 17 -16z m-177 -60 c0 -16
-2 -16 -24 -8 -8 3 -12 12 -10 19 7 17 34 8 34 -11z m526 -18 c18 -19 18 -30
-1 -46 -18 -15 -70 2 -79 26 -3 9 -1 12 4 9 6 -3 13 1 16 9 8 20 41 21 60 2z
m-483 -11 c4 -8 2 -17 -3 -20 -5 -3 -7 -12 -3 -20 3 -8 0 -15 -7 -15 -7 0 -10
8 -7 19 3 12 -1 22 -10 25 -8 3 -11 10 -8 16 9 15 32 12 38 -5z m700 -28 c-2
-4 -11 -3 -19 4 -12 10 -12 14 -2 20 13 9 30 -10 21 -24z m-84 -103 c3 -16 1
-17 -13 -5 -19 16 -21 34 -3 29 6 -3 14 -13 16 -24z m-523 -25 c10 -16 11 -99
1 -99 -4 0 -5 5 -2 10 3 6 -3 10 -15 10 -11 0 -32 12 -46 27 l-25 27 23 18
c26 20 54 23 64 7z m102 -157 c3 -16 -2 -22 -16 -22 -47 0 -73 33 -34 43 31 9
47 2 50 -21z m44 -14 c-9 -9 -15 -9 -24 0 -10 10 -10 15 2 22 20 12 38 -6 22
-22z m-388 -19 c11 9 19 9 35 -1 24 -15 25 -21 11 -49 -11 -20 -45 -26 -55 -9
-4 6 -11 7 -17 4 -7 -5 -9 -1 -5 9 5 12 1 17 -13 17 -14 0 -20 7 -20 23 0 35
12 41 32 17 14 -18 21 -20 32 -11z m151 -28 c3 -5 1 -12 -5 -16 -5 -3 -10 1
-10 9 0 18 6 21 15 7z m325 -26 c0 -8 -7 -15 -15 -15 -16 0 -20 12 -8 23 11
12 23 8 23 -8z m-1076 -29 c9 -13 7 -20 -9 -32 -22 -16 -34 -14 -49 8 -7 12
-6 21 3 31 15 19 42 16 55 -7z m652 -18 c4 -6 2 -14 -4 -16 -7 -2 -10 -8 -6
-13 3 -5 1 -9 -4 -9 -6 0 -13 7 -16 16 -11 28 15 47 30 22z m-316 -6 c0 -13
-12 -22 -22 -16 -10 6 -1 24 13 24 5 0 9 -4 9 -8z m543 2 c9 -10 -4 -34 -19
-34 -8 0 -14 9 -14 20 0 19 19 27 33 14z m-737 -26 c-3 -13 -6 -27 -6 -33 0
-5 -6 1 -14 15 -15 28 -12 40 11 40 11 0 14 -6 9 -22z m436 -10 c-7 -7 -12 -8
-12 -2 0 14 12 26 19 19 2 -3 -1 -11 -7 -17z m798 1 c0 -5 -7 -9 -15 -9 -15 0
-20 12 -9 23 8 8 24 -1 24 -14z m-90 -19 c0 -5 -4 -10 -10 -10 -5 0 -10 5 -10
10 0 6 5 10 10 10 6 0 10 -4 10 -10z m-992 -69 c8 -4 12 -19 10 -32 -4 -32
-52 -39 -67 -10 -18 33 24 64 57 42z m-259 -40 c7 -5 10 -14 6 -20 -5 -9 -10
-9 -21 0 -26 22 -14 38 15 20z m566 0 c3 -6 -3 -15 -14 -20 -26 -14 -31 -14
-31 3 0 21 34 34 45 17z m360 -38 c0 -18 -6 -29 -17 -31 -27 -5 -33 20 -8 40
28 23 26 23 25 -9z m-966 -48 c-6 -6 -13 -5 -19 5 -6 9 -5 17 3 22 15 9 29
-14 16 -27z m86 15 c-3 -5 -10 -10 -16 -10 -5 0 -9 5 -9 10 0 6 7 10 16 10 8
0 12 -4 9 -10z m205 -5 c0 -8 -7 -15 -15 -15 -16 0 -20 12 -8 23 11 12 23 8
23 -8z m300 -36 c0 -9 -40 -49 -50 -49 -11 0 -13 21 -4 43 5 14 54 19 54 6z
m275 -28 c-3 -6 -11 -8 -17 -5 -6 4 -5 9 3 15 16 10 23 4 14 -10z m64 10 c16
-11 6 -51 -14 -51 -21 0 -37 34 -23 48 14 14 19 14 37 3z m-413 -12 c3 -6 1
-16 -4 -21 -13 -13 -45 8 -36 23 7 12 31 11 40 -2z m329 -39 c3 -5 1 -10 -4
-10 -6 0 -11 5 -11 10 0 6 2 10 4 10 3 0 8 -4 11 -10z m-255 -10 c0 -5 -2 -10
-4 -10 -3 0 -8 5 -11 10 -3 6 -1 10 4 10 6 0 11 -4 11 -10z m-280 -20 c0 -5
-2 -10 -4 -10 -3 0 -8 5 -11 10 -3 6 -1 10 4 10 6 0 11 -4 11 -10z m430 -20
c-12 -22 -25 -26 -35 -10 -9 15 4 30 26 30 17 0 18 -3 9 -20z m-450 -5 c14
-17 7 -45 -13 -45 -24 0 -51 26 -44 44 8 20 40 21 57 1z m221 -9 c-9 -11 -9
-15 1 -19 7 -2 10 -8 5 -12 -15 -17 -29 12 -17 35 6 12 14 19 17 16 3 -3 1
-12 -6 -20z m-31 4 c0 -5 -2 -10 -4 -10 -3 0 -8 5 -11 10 -3 6 -1 10 4 10 6 0
11 -4 11 -10z m695 2 c6 -4 17 -16 25 -27 8 -11 11 -17 6 -13 -5 4 -17 3 -27
-2 -23 -13 -49 -2 -49 19 0 29 22 40 45 23z m-555 -53 c0 -5 -7 -9 -15 -9 -8
0 -15 7 -15 15 0 9 6 12 15 9 8 -4 15 -10 15 -15z m-610 -59 c0 -5 -5 -10 -11
-10 -5 0 -7 5 -4 10 3 6 8 10 11 10 2 0 4 -4 4 -10z m820 0 c0 -5 -5 -10 -11
-10 -5 0 -7 5 -4 10 3 6 8 10 11 10 2 0 4 -4 4 -10z m-862 -73 c2 -10 -3 -17
-11 -17 -8 0 -20 -7 -27 -15 -17 -20 -31 -19 -23 3 16 46 54 64 61 29z m770
-43 c-4 -3 -12 5 -18 18 -12 22 -12 22 6 6 10 -10 15 -20 12 -24z m37 26 c13
-6 15 -9 5 -9 -8 0 -22 4 -30 9 -18 12 -2 12 25 0z m211 -35 c6 -15 -11 -45
-26 -45 -12 0 -20 28 -14 45 8 19 33 19 40 0z m-806 -39 c0 4 5 3 12 -4 8 -8
9 -15 2 -22 -16 -16 -44 -1 -44 22 0 17 3 18 15 8 8 -7 15 -9 15 -4z m150 -16
c0 -5 -5 -10 -11 -10 -5 0 -7 5 -4 10 3 6 8 10 11 10 2 0 4 -4 4 -10z m50 -29
c0 -12 -30 -22 -43 -14 -7 4 -3 9 9 14 26 10 34 10 34 0z m345 -33 c13 -31 12
-33 -8 -39 -35 -9 -67 51 -34 64 23 10 28 7 42 -25z m-427 -31 c4 -20 -34 -56
-60 -57 -26 0 -31 18 -8 25 17 5 19 10 10 20 -17 20 -2 37 28 33 16 -2 28 -10
30 -21z m316 -3 c7 -27 -5 -51 -21 -41 -7 4 -9 48 -4 65 4 12 20 -3 25 -24z"/>
<path d="M8390 7517 c-22 -12 -269 -408 -270 -434 0 -11 62 -43 238 -123 39
-18 72 -36 72 -40 0 -4 10 -5 23 -3 14 3 29 -2 36 -11 11 -13 9 -17 -14 -26
-15 -6 -25 -16 -22 -23 3 -7 -17 -71 -43 -142 -43 -117 -46 -131 -32 -143 21
-16 16 -23 229 293 137 203 214 328 220 356 3 18 0 35 -8 46 -11 13 -259 180
-354 237 -35 22 -52 25 -75 13z m92 -539 c3 -7 -4 -21 -14 -31 -19 -18 -27
-11 -25 26 0 19 33 23 39 5z m92 -45 c3 -10 9 -23 12 -30 4 -8 -3 -10 -22 -7
-40 7 -45 13 -34 35 13 24 36 25 44 2z"/>
<path d="M8535 6920 c-3 -5 -2 -10 4 -10 5 0 13 5 16 10 3 6 2 10 -4 10 -5 0
-13 -4 -16 -10z"/>
<path d="M7434 7262 c-6 -4 -64 -86 -129 -182 -65 -96 -196 -290 -290 -430
-95 -141 -178 -272 -183 -293 -10 -36 -10 -48 3 -108 5 -20 225 -330 302 -424
4 -5 122 -163 262 -350 256 -341 281 -383 281 -460 0 -28 -92 -494 -135 -683
-9 -39 -15 -79 -14 -89 1 -10 -1 -25 -4 -33 -8 -19 -57 -253 -63 -304 -3 -22
-7 -43 -9 -47 -3 -4 -7 -22 -10 -40 -3 -19 -11 -59 -18 -89 -7 -30 -10 -72 -6
-93 13 -77 -32 -72 647 -75 467 -2 612 0 630 10 19 10 25 10 31 -1 6 -9 47
-12 173 -9 138 2 167 6 181 20 24 23 38 65 33 96 -2 15 -7 61 -11 102 -4 41
-9 89 -11 105 -2 17 -6 55 -9 85 -3 30 -7 71 -10 90 -2 19 -7 60 -10 90 -3 30
-8 71 -10 90 -3 19 -7 60 -10 90 -4 30 -8 69 -10 86 -2 17 -7 67 -10 110 -4
43 -8 81 -10 84 -2 3 -6 41 -10 85 -4 44 -8 94 -11 110 -17 129 1 181 119 353
111 161 149 244 173 377 3 17 25 127 49 245 24 118 46 232 49 254 4 21 9 43
13 48 10 18 -21 -4 -78 -53 -30 -26 -103 -89 -164 -140 -60 -52 -119 -102
-129 -111 -20 -18 -35 -22 -70 -18 -11 1 -78 58 -149 126 l-129 124 -187 92
c-144 71 -195 91 -226 91 -44 0 -185 -42 -185 -55 0 -4 58 -87 128 -185 133
-185 309 -446 353 -523 32 -55 47 -116 47 -194 1 -81 12 -90 108 -90 41 1 70
-2 62 -6 -15 -8 -91 -33 -158 -52 l-45 -13 -1 -400 c0 -220 -1 -406 -2 -412
-3 -16 -38 -17 -48 -1 -4 7 -9 59 -10 117 -4 157 -15 309 -29 416 -3 17 -12
89 -21 160 -9 72 -20 135 -26 142 -5 6 -33 12 -62 12 -46 0 -126 22 -126 34 0
2 14 4 30 5 50 1 103 33 125 75 15 28 29 40 57 48 60 16 70 57 32 130 -74 144
-564 816 -609 837 -15 7 -47 17 -73 23 -56 12 -110 37 -137 62 -29 27 -65 44
-110 52 -22 4 -51 14 -64 23 l-25 15 40 15 c55 21 118 90 134 146 14 50 8 151
-11 188 -9 17 -2 14 25 -11 20 -19 36 -30 36 -23 0 21 30 13 39 -10 5 -13 7
-26 5 -29 -7 -13 153 -157 183 -163 20 -5 65 3 139 24 60 17 114 32 119 34 87
21 118 33 134 50 11 12 32 59 49 106 40 117 34 138 -53 179 -36 17 -67 31 -70
31 -3 0 -24 9 -48 19 -23 11 -125 54 -227 96 -102 43 -201 84 -220 92 -19 9
-48 21 -65 28 -186 81 -227 93 -251 77z m166 -302 c0 -5 -2 -10 -4 -10 -3 0
-8 5 -11 10 -3 6 -1 10 4 10 6 0 11 -4 11 -10z m220 -237 c0 -44 -3 -53 -17
-53 -10 0 -24 4 -32 9 -12 8 -12 11 1 25 9 8 18 12 22 9 3 -4 6 0 6 8 0 8 -5
20 -11 26 -14 14 -5 30 16 30 12 0 15 -12 15 -54z m-270 18 c0 -20 -36 -36
-46 -20 -10 17 5 39 26 39 13 0 20 -7 20 -19z m16 -78 c-2 -2 -11 0 -20 3 -14
5 -15 9 -5 15 12 7 34 -10 25 -18z m-192 -5 c12 -17 13 -25 4 -35 -10 -12 -14
-10 -24 9 -26 46 -9 68 20 26z m76 18 c0 -3 -4 -8 -10 -11 -5 -3 -10 -1 -10 4
0 6 5 11 10 11 6 0 10 -2 10 -4z m10 -70 c0 -3 -4 -8 -10 -11 -5 -3 -10 -1
-10 4 0 6 5 11 10 11 6 0 10 -2 10 -4z m-352 -58 c2 -19 -2 -28 -18 -33 -34
-11 -57 25 -41 63 0 2 13 2 29 0 21 -2 28 -9 30 -30z m412 -88 c0 -5 -4 -10
-10 -10 -5 0 -10 5 -10 10 0 6 5 10 10 10 6 0 10 -4 10 -10z m120 -178 c0 -13
-12 -22 -22 -16 -10 6 -1 24 13 24 5 0 9 -4 9 -8z m-329 -102 c23 -13 25 -33
5 -49 -12 -10 -19 -8 -36 9 -17 17 -19 24 -9 36 14 17 15 17 40 4z m193 -355
c-4 -8 -8 -15 -10 -15 -2 0 -4 7 -4 15 0 8 4 15 10 15 5 0 7 -7 4 -15z m46 0
c7 -8 8 -15 2 -15 -5 0 -15 7 -22 15 -7 8 -8 15 -2 15 5 0 15 -7 22 -15z
m1290 -347 c0 -5 -6 -8 -14 -8 -18 0 -29 27 -13 33 12 4 27 -10 27 -25z m268
-271 c2 -11 -3 -17 -17 -17 -23 0 -35 15 -26 31 10 15 39 6 43 -14z m-1290
-289 c-6 -18 -28 -21 -28 -4 0 9 7 16 16 16 9 0 14 -5 12 -12z m1132 -468 c0
-5 -4 -10 -10 -10 -5 0 -10 5 -10 10 0 6 5 10 10 10 6 0 10 -4 10 -10z m-30
-200 c0 -5 -2 -10 -4 -10 -3 0 -8 5 -11 10 -3 6 -1 10 4 10 6 0 11 -4 11 -10z
m-320 -130 c0 -5 -2 -10 -4 -10 -3 0 -8 5 -11 10 -3 6 -1 10 4 10 6 0 11 -4
11 -10z m18 -57 c2 -8 -5 -13 -17 -13 -12 0 -21 6 -21 16 0 18 31 15 38 -3z
m-33 -83 c3 -5 -1 -10 -10 -10 -9 0 -13 5 -10 10 3 6 8 10 10 10 2 0 7 -4 10
-10z m-905 -70 c0 -5 -2 -10 -4 -10 -3 0 -8 5 -11 10 -3 6 -1 10 4 10 6 0 11
-4 11 -10z m0 -54 c0 -8 -4 -17 -8 -20 -13 -8 -35 11 -28 23 10 16 36 14 36
-3z m785 -87 c10 -15 -4 -81 -15 -74 -11 7 -9 85 2 85 4 0 10 -5 13 -11z m489
-4 c-6 -16 -24 -21 -24 -7 0 11 11 22 21 22 5 0 6 -7 3 -15z m-1244 1 c0 -2
-7 -6 -15 -10 -8 -3 -15 -1 -15 4 0 6 7 10 15 10 8 0 15 -2 15 -4z m846 -26
c8 0 14 4 14 9 0 5 20 9 45 9 24 0 49 3 54 6 6 4 15 -3 21 -14 6 -11 7 -20 3
-21 -4 0 -20 -3 -35 -5 -22 -4 -28 -1 -28 13 0 15 -2 16 -10 3 -9 -13 -10 -13
-11 0 0 9 -5 6 -11 -8 -9 -18 -17 -22 -36 -17 -13 3 -30 1 -38 -6 -16 -13 -15
-14 -19 23 -3 19 1 28 13 30 9 2 18 -2 20 -9 2 -7 10 -13 18 -13z m454 26 c0
-3 -4 -8 -10 -11 -5 -3 -10 -1 -10 4 0 6 5 11 10 11 6 0 10 -2 10 -4z m-124
-32 c-3 -9 -6 -24 -6 -35 0 -10 -4 -19 -10 -19 -5 0 -10 7 -10 15 0 8 -4 15
-10 15 -5 0 -10 5 -10 11 0 5 5 7 10 4 6 -3 13 1 16 9 3 9 11 16 16 16 6 0 7
-7 4 -16z m-1376 -58 c0 -16 -27 -29 -41 -20 -19 11 -9 34 16 34 15 0 25 -6
25 -14z m1033 -12 c3 -3 3 -12 0 -20 -4 -11 -9 -12 -19 -3 -8 6 -11 15 -8 20
6 10 18 12 27 3z m472 -12 c-3 -3 -11 0 -18 7 -9 10 -8 11 6 5 10 -3 15 -9 12
-12z m55 -1 c0 -5 -6 -14 -14 -20 -11 -9 -16 -9 -21 0 -4 6 -1 15 6 20 18 11
29 11 29 0z m-493 -28 c2 -6 -3 -13 -12 -16 -10 -5 -15 0 -15 14 0 21 21 22
27 2z m181 -30 c-6 -8 -3 -13 9 -16 15 -4 16 -5 1 -6 -26 -2 -51 28 -37 45 8
10 14 11 24 1 8 -8 10 -16 3 -24z"/>
<path d="M8825 7058 c-20 -24 -46 -64 -58 -90 -12 -27 -28 -48 -34 -48 -12 0
-17 -13 -14 -33 1 -4 -5 -10 -14 -13 -22 -9 -232 -337 -217 -342 14 -4 16 -31
2 -33 -5 -1 -18 -2 -27 -2 -26 -2 -145 -184 -141 -215 3 -27 11 -32 223 -140
98 -50 123 -59 140 -50 18 9 50 41 108 108 12 14 48 55 80 92 31 36 57 71 57
76 0 6 9 17 21 25 11 8 39 37 62 64 108 127 136 160 185 222 28 36 53 71 53
78 1 7 2 19 4 26 3 18 -23 57 -58 86 -86 74 -302 231 -318 231 -9 0 -34 -19
-54 -42z m-68 -154 c-3 -3 -12 -4 -19 -1 -8 3 -5 6 6 6 11 1 17 -2 13 -5z
m103 -14 c0 -5 -2 -10 -4 -10 -3 0 -8 5 -11 10 -3 6 -1 10 4 10 6 0 11 -4 11
-10z m70 -12 c-1 -23 -34 -58 -48 -49 -10 6 -8 14 8 34 23 29 40 35 40 15z
m-110 -68 c0 -5 -2 -10 -4 -10 -3 0 -8 5 -11 10 -3 6 -1 10 4 10 6 0 11 -4 11
-10z m403 -29 c15 -15 -11 -51 -37 -51 -28 0 -40 24 -26 50 10 19 44 20 63 1z
m-463 -111 c0 -5 -4 -10 -10 -10 -5 0 -10 5 -10 10 0 6 5 10 10 10 6 0 10 -4
10 -10z m-112 -188 c2 -7 -3 -12 -12 -12 -9 0 -16 7 -16 16 0 17 22 14 28 -4z"/>
<path d="M6109 6738 c-10 -34 -1 -57 22 -58 12 0 17 38 6 49 -10 10 -26 15
-28 9z"/>
<path d="M7715 6710 c3 -5 8 -10 11 -10 2 0 4 5 4 10 0 6 -5 10 -11 10 -5 0
-7 -4 -4 -10z"/>
<path d="M9324 6700 c-11 -4 -49 -41 -83 -82 -128 -149 -149 -173 -168 -194
-10 -12 -36 -43 -58 -70 -38 -46 -104 -123 -115 -134 -3 -3 -33 -38 -68 -77
-52 -59 -62 -77 -56 -95 6 -20 5 -21 -10 -9 -14 12 -16 11 -16 -5 0 -10 43
-60 95 -112 70 -70 100 -93 116 -90 21 3 589 482 623 526 11 15 16 32 12 46
-7 28 -202 274 -231 292 -12 7 -28 9 -41 4z"/>
<path d="M8230 6520 c-36 -10 -117 -32 -180 -49 -136 -36 -180 -55 -180 -76 0
-18 128 -174 144 -176 37 -4 171 38 217 68 31 20 43 40 77 125 22 56 38 107
35 114 -7 18 -33 16 -113 -6z"/>
<path d="M6227 4083 c-4 -6 0 -19 8 -29 11 -15 14 -16 15 -4 0 21 -16 44 -23
33z"/>
<path d="M6241 3994 c0 -11 3 -14 6 -6 3 7 2 16 -1 19 -3 4 -6 -2 -5 -13z"/>
<path d="M6235 3900 c3 -5 8 -10 11 -10 2 0 4 5 4 10 0 6 -5 10 -11 10 -5 0
-7 -4 -4 -10z"/>
<path d="M7376 3191 c-2 -3 -2 -44 -1 -91 8 -247 118 -423 325 -523 94 -44
207 -79 305 -92 94 -13 358 -14 432 -1 40 7 75 10 79 7 3 -3 4 1 3 9 -2 8 1
15 6 15 6 0 9 -3 7 -8 -7 -23 188 52 264 102 106 68 178 146 238 254 46 85 83
238 77 320 0 10 -9 17 -21 17 -11 0 -19 -3 -19 -7 6 -35 -29 -48 -38 -14 -5
19 -27 19 -829 19 -453 0 -826 -3 -828 -7z m1544 -196 c0 -8 -4 -15 -9 -15
-13 0 -22 16 -14 24 11 11 23 6 23 -9z m-1179 -70 c-1 -15 -24 -12 -29 3 -3 9
2 13 12 10 10 -1 17 -7 17 -13z m754 -105 c3 -5 -1 -10 -10 -10 -9 0 -13 5
-10 10 3 6 8 10 10 10 2 0 7 -4 10 -10z m-735 -45 c0 -21 -29 -26 -39 -6 -13
24 6 46 26 30 7 -7 13 -17 13 -24z m277 9 c-9 -9 -28 6 -21 18 4 6 10 6 17 -1
6 -6 8 -13 4 -17z m548 -31 c17 -23 7 -53 -18 -53 -24 0 -46 27 -47 59 0 20 3
22 27 16 15 -3 32 -14 38 -22z m-89 -34 c22 -18 -1 -49 -35 -49 -33 0 -46 22
-31 50 11 20 41 20 66 -1z m-429 -106 c-26 -13 -61 -8 -51 8 3 5 9 7 13 5 4
-3 13 -1 21 4 7 4 20 6 28 3 11 -5 8 -9 -11 -20z m363 17 c0 -5 -5 -10 -11
-10 -5 0 -7 5 -4 10 3 6 8 10 11 10 2 0 4 -4 4 -10z m-203 -34 c9 -8 9 -53 1
-63 -14 -18 -32 -16 -59 6 -21 17 -22 21 -11 46 11 23 17 26 40 20 15 -4 28
-8 29 -9z"/>
</g>
</svg>
